<?xml version="1.0" encoding="UTF-8"?>
<svg width="13px" height="17px" viewBox="0 0 13 17" version="1.1" xmlns="http://www.w3.org/2000/svg" xmlns:xlink="http://www.w3.org/1999/xlink">
    <!-- Generator: Sketch 47.1 (45422) - http://www.bohemiancoding.com/sketch -->
    <title>Group 9</title>
    <desc>Created with Sketch.</desc>
    <defs>
        <polygon id="path-1" points="2.84392201 0.0199240036 0.00324580132 0.0199240036 0.00324580132 4.46297681 5.68459823 4.46297681 5.68459823 0.0199240036"></polygon>
    </defs>
    <g id="Symbols" stroke="none" stroke-width="1" fill="none" fill-rule="evenodd">
        <g id="list-style-1" transform="translate(-8.000000, -246.000000)">
            <g id="Group-9" transform="translate(8.000000, 246.000000)">
                <path d="M0,6.26842452 C0,7.1701994 0.184711377,8.03145976 0.548035169,8.82780975 C2.11525021,12.2565147 5.12051302,15.8777725 6.00442666,16.905883 C6.06999048,16.9829913 6.16692039,17.0272087 6.2682067,17.0272087 C6.37036429,17.0272087 6.46664074,16.9829913 6.53285802,16.905883 C7.4161182,15.8777725 10.421381,12.2576038 11.9885961,8.82780975 C12.3527911,8.03145976 12.5375025,7.1701994 12.5375025,6.26842452 C12.5366312,2.81227427 9.72457477,0 6.2682067,0 C2.81205645,0 0,2.81227427 0,6.26842452 Z" id="Fill-1" fill="#FF7005"></path>
                <path d="M2.1928368,6.28880977 C2.1928368,4.0306511 4.03043328,2.19305462 6.28859195,2.19305462 C8.5470246,2.19305462 10.3846211,4.0306511 10.3846211,6.28880977 C10.3846211,8.54669445 8.5470246,10.3842909 6.28859195,10.3842909 C4.03043328,10.3842909 2.1928368,8.54669445 2.1928368,6.28880977 Z" id="Path" fill="#FFFFFF"></path>
                <g id="homebuyer" transform="translate(3.276714, 3.686303)">
                    <mask id="mask-2" fill="white">
                        <use xlink:href="#path-1"></use>
                    </mask>
                    <g id="Clip-2"></g>
                    <path d="M2.84218592,0.916716689 L0.814804324,2.55840146 C0.814804324,2.56068608 0.814425647,2.5641927 0.813127326,2.56876194 C0.812099489,2.57333118 0.811450329,2.57662528 0.811450329,2.57912242 L0.811450329,4.24131563 C0.811450329,4.30130016 0.833629971,4.35320883 0.87842203,4.39698851 C0.922997701,4.44098071 0.975850166,4.46297681 1.03692533,4.46297681 L2.39101954,4.46297681 L2.39101954,3.13306285 L3.29378508,3.13306285 L3.29378508,4.46297681 L4.6476629,4.46297681 C4.70873807,4.46297681 4.76159053,4.44098071 4.8061662,4.39720103 C4.85095826,4.35342136 4.87335429,4.30130016 4.87335429,4.24131563 L4.87335429,2.57912242 C4.87335429,2.56977142 4.87205597,2.56291756 4.86978391,2.55840146 L2.84218592,0.916716689 Z" id="Fill-1" fill="#FF6E02" mask="url(#mask-2)"></path>
                    <path d="M5.64525994,2.18436149 L4.8731379,1.55407228 L4.8731379,0.141115076 C4.8731379,0.108758494 4.86258905,0.0821931562 4.84143724,0.0614190618 C4.82028544,0.0406980981 4.79323709,0.0303376162 4.76029221,0.0303376162 L4.08343444,0.0303376162 C4.05048956,0.0303376162 4.02344121,0.0406980981 4.00228941,0.0614190618 C3.9811917,0.0821931562 3.97058875,0.108758494 3.97058875,0.141115076 L3.97058875,0.816459103 L3.11034321,0.110033631 C3.03509471,0.0500490971 2.94572698,0.0199240036 2.84240231,0.0199240036 C2.73886125,0.0199240036 2.64965581,0.0500490971 2.57446141,0.110033631 L0.0391119059,2.18436149 C0.015633943,2.20285097 0.00275893112,2.22755673 0.000432773509,2.25869131 C-0.0018933841,2.28982589 0.00632931257,2.31702879 0.0251549602,2.3402469 L0.243651485,2.59633676 C0.262477133,2.61711085 0.28719932,2.62996848 0.317601659,2.63453772 C0.345948324,2.63682233 0.374240892,2.62874647 0.40237117,2.610257 L2.84218592,0.612065391 L5.28227116,2.610257 C5.30104271,2.62646185 5.3257649,2.63453772 5.35622133,2.63453772 L5.36698657,2.63453772 C5.39738891,2.62996848 5.42194881,2.61711085 5.44093675,2.59633676 L5.65964966,2.34003438 C5.67825892,2.31702879 5.686698,2.28982589 5.68415546,2.25869131 C5.6818293,2.22755673 5.6687379,2.20285097 5.64525994,2.18436149 Z" id="Fill-3" fill="#FF6E02" mask="url(#mask-2)"></path>
                </g>
            </g>
        </g>
    </g>
</svg>