<?xml version="1.0" encoding="UTF-8"?>
<svg width="24px" height="24px" viewBox="0 0 24 24" version="1.1" xmlns="http://www.w3.org/2000/svg" xmlns:xlink="http://www.w3.org/1999/xlink">
    <!-- Generator: Sketch 47.1 (45422) - http://www.bohemiancoding.com/sketch -->
    <title>Group 38</title>
    <desc>Created with Sketch.</desc>
    <defs></defs>
    <g id="Listing-site" stroke="none" stroke-width="1" fill="none" fill-rule="evenodd">
        <g id="property-listing" transform="translate(-46.000000, -3435.000000)">
            <g id="mortgage" transform="translate(43.000000, 3168.000000)">
                <g id="Group-55">
                    <g id="Group-38" transform="translate(3.000000, 267.000000)">
                        <rect id="Rectangle" fill="#FF7D14" x="0" y="0" width="24" height="24" rx="5"></rect>
                        <path d="M13.5619048,11.1238095 L13.5619048,8.07319728 C13.5619048,7.40121771 13.0161186,6.85714286 12.3428571,6.85714286 C11.6649019,6.85714286 11.1238095,7.40158897 11.1238095,8.07319728 L11.1238095,11.1238095 L8.07319728,11.1238095 C7.40121771,11.1238095 6.85714286,11.6695957 6.85714286,12.3428571 C6.85714286,13.0208124 7.40158897,13.5619048 8.07319728,13.5619048 L11.1238095,13.5619048 L11.1238095,16.612517 C11.1238095,17.2844966 11.6695957,17.8285714 12.3428571,17.8285714 C13.0208124,17.8285714 13.5619048,17.2841253 13.5619048,16.612517 L13.5619048,13.5619048 L16.612517,13.5619048 C17.2844966,13.5619048 17.8285714,13.0161186 17.8285714,12.3428571 C17.8285714,11.6649019 17.2841253,11.1238095 16.612517,11.1238095 L13.5619048,11.1238095 Z" id="Combined-Shape" fill="#FFFFFF"></path>
                    </g>
                </g>
            </g>
        </g>
    </g>
</svg>