<?xml version="1.0" encoding="UTF-8"?>
<svg width="26px" height="23px" viewBox="0 0 26 23" version="1.1" xmlns="http://www.w3.org/2000/svg" xmlns:xlink="http://www.w3.org/1999/xlink">
    <!-- Generator: Sketch 47.1 (45422) - http://www.bohemiancoding.com/sketch -->
    <title>bathtub</title>
    <desc>Created with Sketch.</desc>
    <defs>
        <polygon id="path-1" points="0.00301775261 22.5798309 0.00301775261 0.0100591754 25.7514889 0.0100591754 25.7514889 22.5798309"></polygon>
    </defs>
    <g id="Symbols" stroke="none" stroke-width="1" fill="none" fill-rule="evenodd">
        <g id="list-style-1" transform="translate(-285.000000, -298.000000)">
            <g id="bathtub" transform="translate(285.000000, 298.000000)">
                <g id="Group-7">
                    <mask id="mask-2" fill="white">
                        <use xlink:href="#path-1"></use>
                    </mask>
                    <g id="Clip-2"></g>
                    <path d="M19.9429187,20.929925 L6.00009692,20.929925 C4.79138641,20.929925 3.55692441,20.1090963 3.12800117,19.0210959 L0.532733927,12.452052 C0.369372919,12.0392234 0.572165895,11.571673 0.984994451,11.408312 C1.39782301,11.2457557 1.86537348,11.4477439 2.02873449,11.8605725 L4.62480646,18.4312258 C4.81150476,18.9044094 5.45448725,19.3204569 6.00009692,19.3204569 L19.9429187,19.3204569 C20.4885284,19.3204569 21.1315109,18.9044094 21.3174044,18.4320306 L23.9134764,11.8806908 C24.0776421,11.4670575 24.5459973,11.2650693 24.9580212,11.4284303 C25.3716545,11.5925961 25.5736427,12.0601465 25.4102817,12.4729751 L22.8150145,19.0227053 C22.3860912,20.1090963 21.1516292,20.929925 19.9429187,20.929925" id="Fill-1" fill="#0A0B09" mask="url(#mask-2)"></path>
                    <path d="M5.50840443,22.5828487 C5.42873576,22.5828487 5.34826236,22.5707777 5.26778895,22.5458309 C4.84369412,22.4130498 4.60790705,21.9607893 4.74068816,21.5374992 L5.23238066,19.9690726 C5.36516177,19.5457825 5.81259389,19.3075812 6.24071239,19.4419718 C6.66480723,19.5747529 6.9005943,20.0270134 6.76781318,20.4503035 L6.27612069,22.0187301 C6.16828633,22.3623516 5.85122112,22.5828487 5.50840443,22.5828487" id="Fill-3" fill="#0A0B09" mask="url(#mask-2)"></path>
                    <path d="M20.5223272,22.5828487 C20.1795105,22.5828487 19.8624453,22.3631563 19.7546109,22.0187301 L19.2629184,20.4503035 C19.1301373,20.0270134 19.3659244,19.5747529 19.7900192,19.4419718 C20.2157235,19.3083859 20.6655699,19.5457825 20.798351,19.9690726 L21.2900435,21.5374992 C21.4228246,21.9607893 21.1870375,22.4130498 20.7629427,22.5458309 C20.6824693,22.5707777 20.6019959,22.5828487 20.5223272,22.5828487" id="Fill-4" fill="#0A0B09" mask="url(#mask-2)"></path>
                    <path d="M3.21893612,12.8825847 C2.7739182,12.8825847 2.41420209,12.5228686 2.41420209,12.0778507 L2.41420209,2.83145668 C2.41420209,1.2759058 3.68809605,0.0100591754 5.25410847,0.0100591754 C6.78873627,0.0100591754 7.89846449,1.41190585 8.04653555,2.70994184 C8.0972338,3.15174082 7.78016859,3.55008417 7.33836961,3.60078241 C6.89254696,3.65148066 6.49742255,3.33280598 6.44833377,2.89261647 C6.37912665,2.29067541 5.87214421,1.61952723 5.25410847,1.61952723 C4.57652242,1.61952723 4.02367014,2.1627227 4.02367014,2.83145668 L4.02367014,12.0778507 C4.02367014,12.5228686 3.66395403,12.8825847 3.21893612,12.8825847" id="Fill-5" fill="#0A0B09" mask="url(#mask-2)"></path>
                    <path d="M24.9467549,12.8825847 L0.804734029,12.8825847 C0.359716111,12.8825847 0,12.5228686 0,12.0778507 C0,11.6336375 0.359716111,11.2731166 0.804734029,11.2731166 L24.9467549,11.2731166 C25.3917728,11.2731166 25.7514889,11.6336375 25.7514889,12.0778507 C25.7514889,12.5228686 25.3917728,12.8825847 24.9467549,12.8825847" id="Fill-6" fill="#0A0B09" mask="url(#mask-2)"></path>
                </g>
                <path d="M8.04734029,5.63997844 L6.43787223,5.63997844 C5.99285431,5.63997844 5.6331382,5.2794576 5.6331382,4.83524441 C5.6331382,4.39103123 5.99285431,4.03051038 6.43787223,4.03051038 L8.04734029,4.03051038 C8.49235821,4.03051038 8.85207432,4.39103123 8.85207432,4.83524441 C8.85207432,5.2794576 8.49235821,5.63997844 8.04734029,5.63997844" id="Fill-8" fill="#0A0B09"></path>
            </g>
        </g>
    </g>
</svg>