<?xml version="1.0" encoding="UTF-8"?>
<svg width="27px" height="20px" viewBox="0 0 27 20" version="1.1" xmlns="http://www.w3.org/2000/svg" xmlns:xlink="http://www.w3.org/1999/xlink">
    <!-- Generator: Sketch 47.1 (45422) - http://www.bohemiancoding.com/sketch -->
    <title>bed</title>
    <desc>Created with Sketch.</desc>
    <defs>
        <polygon id="path-1" points="0.00314492503 19.2578125 26.8366935 19.2578125 26.8366935 0 0.00314492503 0"></polygon>
    </defs>
    <g id="Symbols" stroke="none" stroke-width="1" fill="none" fill-rule="evenodd">
        <g id="list-style-1" transform="translate(-158.000000, -300.000000)">
            <g id="bed" transform="translate(158.000000, 300.000000)">
                <mask id="mask-2" fill="white">
                    <use xlink:href="#path-1"></use>
                </mask>
                <g id="Clip-2"></g>
                <path d="M1.67729335,13.4804687 L25.1594002,13.4804687 L25.1594002,11.5546875 L1.67729335,11.5546875 L1.67729335,13.4804687 Z M1.67729335,9.62890625 L3.35458669,9.62890625 L3.35458669,1.92578125 L1.67729335,1.92578125 L1.67729335,9.62890625 Z M5.03188004,9.62890625 L10.0637601,9.62890625 L10.0637601,7.703125 L5.03188004,7.703125 L5.03188004,9.62890625 Z M25.1594002,5.77734375 L25.1594002,9.62890625 L11.7410534,9.62890625 L11.7410534,6.74023437 C11.7410534,6.20871875 11.3653397,5.77734375 10.9024068,5.77734375 L5.03188004,5.77734375 L5.03188004,0.962890625 C5.03188004,0.431375 4.65616633,0 4.19323337,0 L0.838646673,0 C0.37571371,0 0,0.431375 0,0.962890625 L0,19.2578125 L1.67729335,19.2578125 L1.67729335,15.40625 L25.1594002,15.40625 L25.1594002,19.2578125 L26.8366935,19.2578125 L26.8366935,5.77734375 L25.1594002,5.77734375 L25.1594002,5.77734375 Z" id="Fill-1" fill="#0A090B" mask="url(#mask-2)"></path>
            </g>
        </g>
    </g>
</svg>