<?xml version="1.0" encoding="UTF-8"?>
<svg width="31px" height="36px" viewBox="0 0 31 36" version="1.1" xmlns="http://www.w3.org/2000/svg" xmlns:xlink="http://www.w3.org/1999/xlink">
    <!-- Generator: Sketch 47.1 (45422) - http://www.bohemiancoding.com/sketch -->
    <title>snowflake</title>
    <desc>Created with Sketch.</desc>
    <defs>
        <polygon id="path-1" points="15.2247124 0.452460646 0 0.452460646 0 35.6674524 30.4494248 35.6674524 30.4494248 0.452460646 15.2247124 0.452460646"></polygon>
    </defs>
    <g id="Listing-site" stroke="none" stroke-width="1" fill="none" fill-rule="evenodd">
        <g id="property-listing" transform="translate(-46.000000, -1568.000000)">
            <g id="section-3" transform="translate(44.000000, 1441.000000)">
                <g id="snowflake" transform="translate(2.000000, 127.000000)">
                    <mask id="mask-2" fill="white">
                        <use xlink:href="#path-1"></use>
                    </mask>
                    <g id="Clip-2"></g>
                    <path d="M29.9227746,25.3877299 L26.1601844,23.1901367 L29.3360041,21.2773695 C29.8461516,21.02872 30.0054467,20.3357622 29.7140779,19.8262345 C29.4186762,19.3049876 28.7809918,19.1954391 28.2965533,19.4802651 L24.0626311,21.9881607 L17.3324139,18.0291301 L24.0626311,14.1123902 L28.2965533,16.6141715 C28.428627,16.7114913 28.5995164,16.7690679 28.7885533,16.7690679 C29.1469672,16.7690679 29.4680779,16.5983761 29.7140779,16.2717688 C29.9978852,15.7540886 29.8461516,15.0697929 29.3360041,14.8206338 L26.1601844,12.9099047 L29.9227746,10.712821 C30.4132623,10.4259569 30.580623,9.78700911 30.3008484,9.261686 C30.0331721,8.75623447 29.3697787,8.58095692 28.8636639,8.87750207 L25.0829262,11.0949669 L25.0259631,7.27147059 C25.0178975,6.68041839 24.5727787,6.20451947 23.9860082,6.20451947 C23.4012541,6.20451947 22.9425246,6.71812345 22.9465574,7.27147059 L22.9838607,12.3188525 L16.292459,16.2361019 L16.292459,8.28644988 L20.5087377,5.8580406 C21.0007377,5.57576222 21.2154836,4.92101906 20.9241148,4.40741508 C20.6287131,3.88362055 20.0222828,3.73076222 19.5060861,4.02323115 L16.292459,5.8580406 L16.292459,1.52144988 C16.292459,0.93039768 15.8201189,0.452460646 15.2353648,0.452460646 C14.6485943,0.452460646 14.1954098,0.93039768 14.1954098,1.52144988 L14.1954098,5.89829329 L10.8678566,4.02323115 C10.3496434,3.73432891 9.75884016,3.89788732 9.4694877,4.40741508 C9.17408607,4.92866197 9.35707377,5.56760978 9.86520492,5.8580406 L14.1954098,8.32415493 L14.1954098,16.1943206 L7.3507623,12.2036993 L7.39008197,7.27147059 C7.44704508,6.71812345 6.95504508,6.20451947 6.36827459,6.20451947 L6.33097131,6.20451947 C5.78352049,6.20451947 5.29706557,6.68041839 5.29101639,7.27147059 L5.25371311,10.9813422 L1.5672418,8.84183513 C1.05356557,8.53917564 0.417393443,8.71852941 0.149717213,9.21990472 C-0.13207377,9.74930406 0.0136106557,10.3744946 0.527790984,10.675116 L4.25156557,12.8523281 L1.00013115,14.8206338 C0.490487705,15.0697929 0.330688525,15.7622411 0.641717213,16.2717688 C0.840836066,16.6019428 1.13220492,16.7690679 1.52993852,16.7690679 C1.73661885,16.7690679 1.91002869,16.7176056 2.07738934,16.6141715 L6.33097131,14.0741756 L13.155959,18.0291301 L6.33097131,22.0238277 L2.07738934,19.4802651 C1.5672418,19.1796437 0.907881148,19.3207829 0.641717213,19.8262345 C0.360430328,20.3520671 0.512163934,20.9849006 1.00013115,21.2773695 L4.25156557,23.2258036 L0.527790984,25.4233969 C0.0156270492,25.7260563 -0.151733607,26.3609279 0.149717213,26.8780986 C0.360430328,27.2362966 0.641717213,27.4115742 1.03793852,27.4115742 C1.13220492,27.4115742 1.3212418,27.3560356 1.5672418,27.2582063 L5.25371311,25.1166611 L5.29101639,28.8270423 C5.29706557,29.4180944 5.78352049,29.8736123 6.33097131,29.8736123 L6.36827459,29.8736123 C6.95504508,29.8736123 7.39411475,29.381918 7.39008197,28.7867896 L7.3507623,23.8591466 L14.1954098,19.9041922 L14.1954098,27.7341052 L9.86520492,30.2002196 C9.3495123,30.4947266 9.16854098,31.1336744 9.4694877,31.6508451 C9.67818443,32.0151574 9.95997541,32.190435 10.357709,32.190435 C10.5467459,32.190435 10.7201557,32.1568061 10.8678566,32.0712055 L14.1954098,30.1645526 L14.1954098,34.614768 C14.1954098,35.2058202 14.6485943,35.6674524 15.2353648,35.6674524 C15.8201189,35.6674524 16.292459,35.2058202 16.292459,34.614768 L16.292459,30.2379246 L19.5060861,32.0712055 C19.6537869,32.1568061 19.8271967,32.190435 19.9985902,32.190435 C20.4139672,32.190435 20.7209631,32.0192336 20.9241148,31.6508451 C21.2114508,31.1377506 21.0264467,30.4947266 20.5087377,30.2002196 L16.292459,27.8115534 L16.292459,19.864449 L22.9838607,23.7811889 L22.9465574,28.7867896 C22.9425246,29.381918 23.4012541,29.8736123 23.9860082,29.8736123 C24.5727787,29.8736123 25.0178975,29.4180944 25.0259631,28.8270423 L25.0829262,24.9836744 L28.8636639,27.2205012 C29.0093484,27.3061019 29.2044344,27.336164 29.4131311,27.336164 C29.8088484,27.336164 30.1002172,27.1690389 30.3008484,26.8383554 C30.6103648,26.3288277 30.4132623,25.6720464 29.9227746,25.3877299 Z" id="Fill-1" fill="#F57F1D" mask="url(#mask-2)"></path>
                </g>
            </g>
        </g>
    </g>
</svg>