<?xml version="1.0" encoding="UTF-8"?>
<svg width="29px" height="25px" viewBox="0 0 29 25" version="1.1" xmlns="http://www.w3.org/2000/svg" xmlns:xlink="http://www.w3.org/1999/xlink">
    <!-- Generator: Sketch 47.1 (45422) - http://www.bohemiancoding.com/sketch -->
    <title>empty-shopping-cart</title>
    <desc>Created with Sketch.</desc>
    <defs></defs>
    <g id="Listing-site" stroke="none" stroke-width="1" fill="none" fill-rule="evenodd">
        <g id="property-listing" transform="translate(-174.000000, -4381.000000)" fill="#142F87">
            <g id="neighborhood" transform="translate(43.000000, 4171.000000)">
                <g id="Group-33" transform="translate(2.000000, 55.000000)">
                    <g id="empty-shopping-cart" transform="translate(128.992161, 155.000000)">
                        <path d="M27.6705826,5.04765 L11.1942495,5.04765 C10.6569701,5.04765 10.3520467,5.450625 10.5125327,5.94675 L13.1186863,13.331925 C13.2463773,13.730175 13.7020181,14.05215 14.1325393,14.05215 L24.9339469,14.05215 C25.3651659,14.05215 25.8201089,13.730175 25.9484977,13.331925 L28.2183284,5.7699 C28.3467172,5.37165 28.1011038,5.04765 27.6705826,5.04765 Z" id="Fill-1"></path>
                        <path d="M15.1491834,22.560525 C15.1491834,23.8761 14.0453187,24.94395 12.685374,24.94395 C11.3247316,24.94395 10.2208668,23.8761 10.2208668,22.560525 C10.2208668,21.24495 11.3247316,20.1771 12.685374,20.1771 C14.0453187,20.1771 15.1491834,21.24495 15.1491834,22.560525 Z" id="Fill-2"></path>
                        <path d="M25.5772866,22.58955 C25.5772866,23.907825 24.4734218,24.975675 23.1134771,24.975675 C21.7535325,24.975675 20.6496677,23.907825 20.6496677,22.58955 C20.6496677,21.273975 21.7535325,20.206125 23.1134771,20.206125 C24.4734218,20.206125 25.5772866,21.273975 25.5772866,22.58955 Z" id="Fill-3"></path>
                        <path d="M26.0733977,16.477425 L11.6575656,16.477425 L5.887744,0.41715 L1.39553069,0.41715 C0.624499985,0.41715 0,1.021275 0,1.76715 C0,2.5137 0.624499985,3.11715 1.39553069,3.11715 L3.90329935,3.11715 L9.673121,19.177425 L26.0733977,19.177425 C26.8423351,19.177425 27.4689284,18.573975 27.4689284,17.827425 C27.4689284,17.08425 26.8423351,16.477425 26.0733977,16.477425 Z" id="Fill-4"></path>
                    </g>
                </g>
            </g>
        </g>
    </g>
</svg>
