<?xml version="1.0" encoding="UTF-8"?>
<svg width="21px" height="22px" viewBox="0 0 21 22" version="1.1" xmlns="http://www.w3.org/2000/svg" xmlns:xlink="http://www.w3.org/1999/xlink">
    <!-- Generator: Sketch 47.1 (45422) - http://www.bohemiancoding.com/sketch -->
    <title>gas-station</title>
    <desc>Created with Sketch.</desc>
    <defs></defs>
    <g id="Listing-site" stroke="none" stroke-width="1" fill="none" fill-rule="evenodd">
        <g id="property-listing" transform="translate(-177.000000, -4530.000000)" fill="#142F87">
            <g id="neighborhood" transform="translate(43.000000, 4171.000000)">
                <g id="Group-33" transform="translate(2.000000, 55.000000)">
                    <g id="gas-station" transform="translate(132.164100, 304.000000)">
                        <path d="M12.032075,6.34073989 C12.032075,6.66066176 11.7485507,6.91999081 11.3987245,6.91999081 L4.64321292,6.91999081 C4.29338676,6.91999081 4.00981728,6.66066176 4.00981728,6.34073989 L4.00981728,2.96392004 C4.00981728,2.64399816 4.29338676,2.38466912 4.64321292,2.38466912 L11.3987245,2.38466912 C11.7485507,2.38466912 12.032075,2.64399816 12.032075,2.96392004 L12.032075,6.34073989 Z M19.8115121,3.4308364 L18.5960076,1.25210018 C18.3416091,0.796227022 17.7313694,0.615151654 17.2327032,0.847761949 C16.7341726,1.08037224 16.5362619,1.63857077 16.79057,2.09452665 L17.61862,3.57878217 C16.2933058,3.98125919 15.3343705,5.12487132 15.3343705,6.47028033 L15.3343705,8.74306985 C15.3343705,9.12693474 15.6746539,9.4381296 16.0944001,9.4381296 L17.8953151,9.4381296 L17.8953151,11.7665487 C17.8953151,12.8001425 16.9758625,13.6409972 15.8457454,13.6409972 L14.6120146,13.6409972 L14.6120146,1.70776654 C14.6120598,0.766116728 13.7743765,0 12.7447072,0 L3.78273555,0 C2.485326,0 1.42974198,0.965266544 1.42974198,2.1517693 L1.42974198,17.788773 C0.610556312,17.9694761 0,18.6448897 0,19.448727 L0,20.4814108 C0,20.8652757 0.340283385,21.1764706 0.760029543,21.1764706 L15.2818175,21.1764706 C15.7015636,21.1764706 16.0418922,20.8652757 16.0418922,20.4814108 L16.0418922,19.448727 C16.0418922,18.6448897 15.4312455,17.9694761 14.6120598,17.788773 L14.6120598,15.4945175 L15.8457906,15.4945175 C18.0934971,15.4945175 19.9221811,13.8221553 19.9221811,11.7665074 L19.9221811,3.85200827 C19.9221811,3.70555147 19.8842362,3.56120404 19.8115121,3.4308364 L19.8115121,3.4308364 Z" id="Fill-1"></path>
                    </g>
                </g>
            </g>
        </g>
    </g>
</svg>