<?xml version="1.0" encoding="UTF-8"?>
<svg width="37px" height="20px" viewBox="0 0 37 20" version="1.1" xmlns="http://www.w3.org/2000/svg" xmlns:xlink="http://www.w3.org/1999/xlink">
    <!-- Generator: Sketch 47.1 (45422) - http://www.bohemiancoding.com/sketch -->
    <title>students-cap</title>
    <desc>Created with Sketch.</desc>
    <defs>
        <polygon id="path-1" points="17.7867589 0.044299187 0.00336923078 0.044299187 0.00336923078 19.5469897 35.5701486 19.5469897 35.5701486 0.044299187 17.7867589 0.044299187"></polygon>
    </defs>
    <g id="Listing-site" stroke="none" stroke-width="1" fill="none" fill-rule="evenodd">
        <g id="property-listing" transform="translate(-169.000000, -4253.000000)">
            <g id="neighborhood" transform="translate(43.000000, 4171.000000)">
                <g id="Group-33" transform="translate(2.000000, 55.000000)">
                    <g id="students-cap" transform="translate(124.762910, 27.000000)">
                        <mask id="mask-2" fill="white">
                            <use xlink:href="#path-1"></use>
                        </mask>
                        <g id="Clip-2"></g>
                        <path d="M17.7852147,13.1574428 L7.17432772,10.0681322 L7.17432772,15.2277127 C7.17432772,17.6129637 11.9265716,19.5469897 17.7884716,19.5469897 C23.6499785,19.5469897 28.4031209,17.6129637 28.4031209,15.2277127 C28.4031209,15.2088564 28.3964947,15.1901593 28.3961016,15.1716748 L28.3961016,10.0681322 L17.7852147,13.1574428 Z" id="Fill-1" fill="#FFFFFF" mask="url(#mask-2)"></path>
                        <path d="M0,6.51638916 L3.79083386,7.79910027 L4.11371848,7.14465149 L5.50639002,7.03284119 L5.70489387,7.22809756 L4.50982771,7.49617669 L4.33569463,7.98373333 C4.33547001,7.98373333 1.63660385,13.321148 2.0329377,15.9321442 C2.0329377,15.9321442 3.71755309,16.8828238 5.40149463,15.9321442 L5.84920925,8.7933355 L5.84920925,8.19912087 L8.35574849,7.6642374 L8.17869541,8.07668726 L6.30983925,8.65146125 L7.17432772,8.94360217 L17.7852147,12.0328596 L28.3961016,8.94360217 L35.5701486,6.51660163 L17.7852147,0.044299187 L0,6.51638916 Z" id="Fill-3" fill="#FFFFFF" mask="url(#mask-2)"></path>
                    </g>
                </g>
            </g>
        </g>
    </g>
</svg>