<?xml version="1.0" encoding="UTF-8"?>
<svg width="107px" height="44px" viewBox="0 0 107 44" version="1.1" xmlns="http://www.w3.org/2000/svg" xmlns:xlink="http://www.w3.org/1999/xlink">
    <!-- Generator: Sketch 47.1 (45422) - http://www.bohemiancoding.com/sketch -->
    <title>School icon</title>
    <desc>Created with Sketch.</desc>
    <defs>
        <polygon id="path-1" points="0 43.3693694 106.994602 43.3693694 106.994602 0.0175186615 0 0.0175186615"></polygon>
    </defs>
    <g id="Listing-site" stroke="none" stroke-width="1" fill="none" fill-rule="evenodd">
        <g id="property-listing" transform="translate(-850.000000, -1212.000000)">
            <g id="Group-12" transform="translate(42.000000, 1126.000000)">
                <g id="High-light-features">
                    <g id="School-icon" transform="translate(808.000000, 86.000000)">
                        <polygon id="Fill-1" fill="#57C252" points="0 43.4586718 106.994602 43.4586718 106.994602 32.904426 0 32.904426"></polygon>
                        <polygon id="Fill-2" fill="#8BD95A" points="0 35.5320116 106.994602 35.5320116 106.994602 30.5043694 0 30.5043694"></polygon>
                        <g id="Group-153" transform="translate(0.000000, 0.089302)">
                            <path d="M13.1711179,32.2381187 C13.1711179,34.0079308 11.7495314,35.4427519 9.99604372,35.4427519 C8.24255608,35.4427519 6.82096954,34.0079308 6.82096954,32.2381187 C6.82096954,30.4683066 8.24255608,29.0334855 9.99604372,29.0334855 C11.7495314,29.0334855 13.1711179,30.4683066 13.1711179,32.2381187 Z" id="Fill-3" fill="#489C3F"></path>
                            <path d="M24.2486236,31.8998162 C24.2486236,33.8564584 22.6769619,35.4427519 20.7384733,35.4427519 C18.7998788,35.4427519 17.2282171,33.8564584 17.2282171,31.8998162 C17.2282171,29.9432808 18.7998788,28.3569874 20.7384733,28.3569874 C22.6769619,28.3569874 24.2486236,29.9432808 24.2486236,31.8998162" id="Fill-5" fill="#489C3F"></path>
                            <path d="M19.5918482,30.813766 C19.5918482,33.3703156 17.5385277,35.4427519 15.0055593,35.4427519 C12.4726968,35.4427519 10.4193764,33.3703156 10.4193764,30.813766 C10.4193764,28.2573233 12.4726968,26.184887 15.0055593,26.184887 C17.5385277,26.184887 19.5918482,28.2573233 19.5918482,30.813766" id="Fill-7" fill="#489C3F"></path>
                            <mask id="mask-2" fill="white">
                                <use xlink:href="#path-1"></use>
                            </mask>
                            <g id="Clip-10"></g>
                            <polygon id="Fill-9" fill="#489C3F" mask="url(#mask-2)" points="9.99608605 35.4427091 20.7385262 35.4427091 20.7385262 31.5615779 9.99608605 31.5615779"></polygon>
                            <path d="M94.5315578,32.2381187 C94.5315578,34.0079308 95.9531443,35.4427519 97.7066319,35.4427519 C99.4601196,35.4427519 100.881706,34.0079308 100.881706,32.2381187 C100.881706,30.4683066 99.4601196,29.0334855 97.7066319,29.0334855 C95.9531443,29.0334855 94.5315578,30.4683066 94.5315578,32.2381187" id="Fill-11" fill="#489C3F" mask="url(#mask-2)"></path>
                            <path d="M83.4540414,31.8998162 C83.4540414,33.8564584 85.0257032,35.4427519 86.9641918,35.4427519 C88.9027863,35.4427519 90.474448,33.8564584 90.474448,31.8998162 C90.474448,29.9432808 88.9027863,28.3569874 86.9641918,28.3569874 C85.0257032,28.3569874 83.4540414,29.9432808 83.4540414,31.8998162" id="Fill-12" fill="#489C3F" mask="url(#mask-2)"></path>
                            <path d="M88.1108169,30.813766 C88.1108169,33.3703156 90.1641374,35.4427519 92.6971057,35.4427519 C95.2299682,35.4427519 97.2832887,33.3703156 97.2832887,30.813766 C97.2832887,28.2573233 95.2299682,26.184887 92.6971057,26.184887 C90.1641374,26.184887 88.1108169,28.2573233 88.1108169,30.813766" id="Fill-13" fill="#489C3F" mask="url(#mask-2)"></path>
                            <polygon id="Fill-14" fill="#489C3F" mask="url(#mask-2)" points="86.9642235 35.4427091 97.7066637 35.4427091 97.7066637 31.5615779 86.9642235 31.5615779"></polygon>
                            <polygon id="Fill-15" fill="#DD3E3E" mask="url(#mask-2)" points="64.2724975 34.4561094 81.4007527 34.4561094 81.4007527 9.94953153 64.2724975 9.94953153"></polygon>
                            <polygon id="Fill-16" fill="#7A7A7A" mask="url(#mask-2)" points="64.2724975 10.5788147 82.4591108 10.5788147 82.4591108 9.32035521 64.2724975 9.32035521"></polygon>
                            <polygon id="Fill-17" fill="#BC9C9C" mask="url(#mask-2)" points="64.2724975 10.5788147 82.4591108 10.5788147 82.4591108 10.2679653 64.2724975 10.2679653"></polygon>
                            <polygon id="Fill-18" fill="#FFF5F5" mask="url(#mask-2)" points="64.2724975 22.3961133 82.4591108 22.3961133 82.4591108 21.1376538 64.2724975 21.1376538"></polygon>
                            <polygon id="Fill-19" fill="#BC9C9C" mask="url(#mask-2)" points="64.2724975 22.3961133 82.4591108 22.3961133 82.4591108 22.0852638 64.2724975 22.0852638"></polygon>
                            <polygon id="Fill-20" fill="#FFF5F5" mask="url(#mask-2)" points="76.2431622 15.0226795 80.5915321 15.0226795 80.5915321 11.3382059 76.2431622 11.3382059"></polygon>
                            <polygon id="Fill-21" fill="#7ADAFF" mask="url(#mask-2)" points="76.5921029 14.7271055 80.2425915 14.7271055 80.2425915 11.6338867 76.5921029 11.6338867"></polygon>
                            <polygon id="Fill-22" fill="#FFF5F5" mask="url(#mask-2)" points="76.2431622 13.4875534 80.5915321 13.4875534 80.5915321 12.8373333 76.2431622 12.8373333"></polygon>
                            <polygon id="Fill-23" fill="#FFF5F5" mask="url(#mask-2)" points="78.0952888 14.9142561 78.7394055 14.9142561 78.7394055 11.4466293 78.0952888 11.4466293"></polygon>
                            <polygon id="Fill-24" fill="#FFF5F5" mask="url(#mask-2)" points="70.4819901 15.0226795 74.83036 15.0226795 74.83036 11.3382059 70.4819901 11.3382059"></polygon>
                            <polygon id="Fill-25" fill="#7ADAFF" mask="url(#mask-2)" points="70.8309308 14.7271055 74.4814194 14.7271055 74.4814194 11.6338867 70.8309308 11.6338867"></polygon>
                            <polygon id="Fill-26" fill="#FFF5F5" mask="url(#mask-2)" points="70.4819901 13.4875534 74.83036 13.4875534 74.83036 12.8373333 70.4819901 12.8373333"></polygon>
                            <polygon id="Fill-27" fill="#FFF5F5" mask="url(#mask-2)" points="72.3341167 14.9142561 72.9782334 14.9142561 72.9782334 11.4466293 72.3341167 11.4466293"></polygon>
                            <polygon id="Fill-28" fill="#FFF5F5" mask="url(#mask-2)" points="64.7209238 15.0226795 69.0692938 15.0226795 69.0692938 11.3382059 64.7209238 11.3382059"></polygon>
                            <polygon id="Fill-29" fill="#7ADAFF" mask="url(#mask-2)" points="65.0698645 14.7271055 68.7203531 14.7271055 68.7203531 11.6338867 65.0698645 11.6338867"></polygon>
                            <polygon id="Fill-30" fill="#FFF5F5" mask="url(#mask-2)" points="64.7209238 13.4875534 69.0692938 13.4875534 69.0692938 12.8373333 64.7209238 12.8373333"></polygon>
                            <polygon id="Fill-31" fill="#FFF5F5" mask="url(#mask-2)" points="66.5730504 14.9142561 67.2171672 14.9142561 67.2171672 11.4466293 66.5730504 11.4466293"></polygon>
                            <polygon id="Fill-32" fill="#FFF5F5" mask="url(#mask-2)" points="76.2431622 19.4444324 80.5915321 19.4444324 80.5915321 15.7600656 76.2431622 15.7600656"></polygon>
                            <polygon id="Fill-33" fill="#7ADAFF" mask="url(#mask-2)" points="76.5921029 19.1487516 80.2425915 19.1487516 80.2425915 16.0555328 76.5921029 16.0555328"></polygon>
                            <polygon id="Fill-34" fill="#FFF5F5" mask="url(#mask-2)" points="76.2431622 17.9093063 80.5915321 17.9093063 80.5915321 17.2590862 76.2431622 17.2590862"></polygon>
                            <polygon id="Fill-35" fill="#FFF5F5" mask="url(#mask-2)" points="78.0952888 19.3361158 78.7394055 19.3361158 78.7394055 15.8683822 78.0952888 15.8683822"></polygon>
                            <polygon id="Fill-36" fill="#FFF5F5" mask="url(#mask-2)" points="70.4819901 19.4444324 74.83036 19.4444324 74.83036 15.7600656 70.4819901 15.7600656"></polygon>
                            <polygon id="Fill-37" fill="#7ADAFF" mask="url(#mask-2)" points="70.8309308 19.1487516 74.4814194 19.1487516 74.4814194 16.0555328 70.8309308 16.0555328"></polygon>
                            <polygon id="Fill-38" fill="#FFF5F5" mask="url(#mask-2)" points="70.4819901 17.9093063 74.83036 17.9093063 74.83036 17.2590862 70.4819901 17.2590862"></polygon>
                            <polygon id="Fill-39" fill="#FFF5F5" mask="url(#mask-2)" points="72.3341167 19.3361158 72.9782334 19.3361158 72.9782334 15.8683822 72.3341167 15.8683822"></polygon>
                            <polygon id="Fill-40" fill="#FFF5F5" mask="url(#mask-2)" points="64.7209238 19.4444324 69.0692938 19.4444324 69.0692938 15.7600656 64.7209238 15.7600656"></polygon>
                            <polygon id="Fill-41" fill="#7ADAFF" mask="url(#mask-2)" points="65.0698645 19.1487516 68.7203531 19.1487516 68.7203531 16.0555328 65.0698645 16.0555328"></polygon>
                            <polygon id="Fill-42" fill="#FFF5F5" mask="url(#mask-2)" points="64.7209238 17.9093063 69.0692938 17.9093063 69.0692938 17.2590862 64.7209238 17.2590862"></polygon>
                            <polygon id="Fill-43" fill="#FFF5F5" mask="url(#mask-2)" points="66.5730504 19.3361158 67.2171672 19.3361158 67.2171672 15.8683822 66.5730504 15.8683822"></polygon>
                            <polygon id="Fill-44" fill="#FFF5F5" mask="url(#mask-2)" points="76.2431622 31.9748687 80.5915321 31.9748687 80.5915321 23.4291802 76.2431622 23.4291802"></polygon>
                            <polygon id="Fill-45" fill="#7ADAFF" mask="url(#mask-2)" points="76.6618487 31.4767619 80.1728457 31.4767619 80.1728457 23.8830631 76.6618487 23.8830631"></polygon>
                            <polygon id="Fill-46" fill="#FFF5F5" mask="url(#mask-2)" points="76.2431622 28.0270811 80.5915321 28.0270811 80.5915321 27.376861 76.2431622 27.376861"></polygon>
                            <polygon id="Fill-47" fill="#FFF5F5" mask="url(#mask-2)" points="78.0952888 31.7612265 78.7394055 31.7612265 78.7394055 23.6428224 78.0952888 23.6428224"></polygon>
                            <polygon id="Fill-48" fill="#FFF5F5" mask="url(#mask-2)" points="70.4819901 31.9748687 74.83036 31.9748687 74.83036 23.4291802 70.4819901 23.4291802"></polygon>
                            <polygon id="Fill-49" fill="#7ADAFF" mask="url(#mask-2)" points="70.9006766 31.4767619 74.4116736 31.4767619 74.4116736 23.8830631 70.9006766 23.8830631"></polygon>
                            <polygon id="Fill-50" fill="#FFF5F5" mask="url(#mask-2)" points="70.4819901 28.0270811 74.83036 28.0270811 74.83036 27.376861 70.4819901 27.376861"></polygon>
                            <polygon id="Fill-51" fill="#FFF5F5" mask="url(#mask-2)" points="72.3341167 31.7612265 72.9782334 31.7612265 72.9782334 23.6428224 72.3341167 23.6428224"></polygon>
                            <polygon id="Fill-52" fill="#FFF5F5" mask="url(#mask-2)" points="64.7209238 31.9748687 69.0692938 31.9748687 69.0692938 23.4291802 64.7209238 23.4291802"></polygon>
                            <polygon id="Fill-53" fill="#7ADAFF" mask="url(#mask-2)" points="65.1396103 31.4767619 68.6506073 31.4767619 68.6506073 23.8830631 65.1396103 23.8830631"></polygon>
                            <polygon id="Fill-54" fill="#FFF5F5" mask="url(#mask-2)" points="64.7209238 28.0270811 69.0692938 28.0270811 69.0692938 27.376861 64.7209238 27.376861"></polygon>
                            <polygon id="Fill-55" fill="#FFF5F5" mask="url(#mask-2)" points="66.5730504 31.7612265 67.2171672 31.7612265 67.2171672 23.6428224 66.5730504 23.6428224"></polygon>
                            <polygon id="Fill-56" fill="#DD3E3E" mask="url(#mask-2)" points="25.8712453 34.4561094 42.9995005 34.4561094 42.9995005 9.94953153 25.8712453 9.94953153"></polygon>
                            <polygon id="Fill-57" fill="#7A7A7A" mask="url(#mask-2)" points="24.8128872 10.5788147 42.9995005 10.5788147 42.9995005 9.32035521 24.8128872 9.32035521"></polygon>
                            <polygon id="Fill-58" fill="#BC9C9C" mask="url(#mask-2)" points="24.8128872 10.5788147 42.9995005 10.5788147 42.9995005 10.2679653 24.8128872 10.2679653"></polygon>
                            <polygon id="Fill-59" fill="#FFF5F5" mask="url(#mask-2)" points="24.8128872 22.3961133 42.9995005 22.3961133 42.9995005 21.1376538 24.8128872 21.1376538"></polygon>
                            <polygon id="Fill-60" fill="#BC9C9C" mask="url(#mask-2)" points="24.8128872 22.3961133 42.9995005 22.3961133 42.9995005 22.0852638 24.8128872 22.0852638"></polygon>
                            <polygon id="Fill-61" fill="#FFF5F5" mask="url(#mask-2)" points="26.6805717 15.0226795 31.0289416 15.0226795 31.0289416 11.3382059 26.6805717 11.3382059"></polygon>
                            <polygon id="Fill-62" fill="#7ADAFF" mask="url(#mask-2)" points="27.0295124 14.7271055 30.680001 14.7271055 30.680001 11.6338867 27.0295124 11.6338867"></polygon>
                            <polygon id="Fill-63" fill="#FFF5F5" mask="url(#mask-2)" points="26.6805717 13.4875534 31.0289416 13.4875534 31.0289416 12.8373333 26.6805717 12.8373333"></polygon>
                            <polygon id="Fill-64" fill="#FFF5F5" mask="url(#mask-2)" points="28.5326983 14.9142561 29.176815 14.9142561 29.176815 11.4466293 28.5326983 11.4466293"></polygon>
                            <polygon id="Fill-65" fill="#FFF5F5" mask="url(#mask-2)" points="32.4417438 15.0226795 36.7901137 15.0226795 36.7901137 11.3382059 32.4417438 11.3382059"></polygon>
                            <polygon id="Fill-66" fill="#7ADAFF" mask="url(#mask-2)" points="32.7906845 14.7271055 36.4411731 14.7271055 36.4411731 11.6338867 32.7906845 11.6338867"></polygon>
                            <polygon id="Fill-67" fill="#FFF5F5" mask="url(#mask-2)" points="32.4417438 13.4875534 36.7901137 13.4875534 36.7901137 12.8373333 32.4417438 12.8373333"></polygon>
                            <polygon id="Fill-68" fill="#FFF5F5" mask="url(#mask-2)" points="34.2938704 14.9142561 34.9379871 14.9142561 34.9379871 11.4466293 34.2938704 11.4466293"></polygon>
                            <polygon id="Fill-69" fill="#FFF5F5" mask="url(#mask-2)" points="38.2028101 15.0226795 42.55118 15.0226795 42.55118 11.3382059 38.2028101 11.3382059"></polygon>
                            <polygon id="Fill-70" fill="#7ADAFF" mask="url(#mask-2)" points="38.5517507 14.7271055 42.2022394 14.7271055 42.2022394 11.6338867 38.5517507 11.6338867"></polygon>
                            <polygon id="Fill-71" fill="#FFF5F5" mask="url(#mask-2)" points="38.2028101 13.4875534 42.55118 13.4875534 42.55118 12.8373333 38.2028101 12.8373333"></polygon>
                            <polygon id="Fill-72" fill="#FFF5F5" mask="url(#mask-2)" points="40.0549367 14.9142561 40.6990534 14.9142561 40.6990534 11.4466293 40.0549367 11.4466293"></polygon>
                            <polygon id="Fill-73" fill="#FFF5F5" mask="url(#mask-2)" points="26.6805717 19.4444324 31.0289416 19.4444324 31.0289416 15.7600656 26.6805717 15.7600656"></polygon>
                            <polygon id="Fill-74" fill="#7ADAFF" mask="url(#mask-2)" points="27.0295124 19.1487516 30.680001 19.1487516 30.680001 16.0555328 27.0295124 16.0555328"></polygon>
                            <polygon id="Fill-75" fill="#FFF5F5" mask="url(#mask-2)" points="26.6805717 17.9093063 31.0289416 17.9093063 31.0289416 17.2590862 26.6805717 17.2590862"></polygon>
                            <polygon id="Fill-76" fill="#FFF5F5" mask="url(#mask-2)" points="28.5326983 19.3361158 29.176815 19.3361158 29.176815 15.8683822 28.5326983 15.8683822"></polygon>
                            <polygon id="Fill-77" fill="#FFF5F5" mask="url(#mask-2)" points="32.4417438 19.4444324 36.7901137 19.4444324 36.7901137 15.7600656 32.4417438 15.7600656"></polygon>
                            <polygon id="Fill-78" fill="#7ADAFF" mask="url(#mask-2)" points="32.7906845 19.1487516 36.4411731 19.1487516 36.4411731 16.0555328 32.7906845 16.0555328"></polygon>
                            <polygon id="Fill-79" fill="#FFF5F5" mask="url(#mask-2)" points="32.4417438 17.9093063 36.7901137 17.9093063 36.7901137 17.2590862 32.4417438 17.2590862"></polygon>
                            <polygon id="Fill-80" fill="#FFF5F5" mask="url(#mask-2)" points="34.2938704 19.3361158 34.9379871 19.3361158 34.9379871 15.8683822 34.2938704 15.8683822"></polygon>
                            <polygon id="Fill-81" fill="#FFF5F5" mask="url(#mask-2)" points="38.2028101 19.4444324 42.55118 19.4444324 42.55118 15.7600656 38.2028101 15.7600656"></polygon>
                            <polygon id="Fill-82" fill="#7ADAFF" mask="url(#mask-2)" points="38.5517507 19.1487516 42.2022394 19.1487516 42.2022394 16.0555328 38.5517507 16.0555328"></polygon>
                            <polygon id="Fill-83" fill="#FFF5F5" mask="url(#mask-2)" points="38.2028101 17.9093063 42.55118 17.9093063 42.55118 17.2590862 38.2028101 17.2590862"></polygon>
                            <polygon id="Fill-84" fill="#FFF5F5" mask="url(#mask-2)" points="40.0549367 19.3361158 40.6990534 19.3361158 40.6990534 15.8683822 40.0549367 15.8683822"></polygon>
                            <polygon id="Fill-85" fill="#FFF5F5" mask="url(#mask-2)" points="26.6805717 31.9748687 31.0289416 31.9748687 31.0289416 23.4291802 26.6805717 23.4291802"></polygon>
                            <polygon id="Fill-86" fill="#7ADAFF" mask="url(#mask-2)" points="27.0992582 31.4767619 30.6102552 31.4767619 30.6102552 23.8830631 27.0992582 23.8830631"></polygon>
                            <polygon id="Fill-87" fill="#FFF5F5" mask="url(#mask-2)" points="26.6805717 28.0270811 31.0289416 28.0270811 31.0289416 27.376861 26.6805717 27.376861"></polygon>
                            <polygon id="Fill-88" fill="#FFF5F5" mask="url(#mask-2)" points="28.5326983 31.7612265 29.176815 31.7612265 29.176815 23.6428224 28.5326983 23.6428224"></polygon>
                            <polygon id="Fill-89" fill="#FFF5F5" mask="url(#mask-2)" points="32.4417438 31.9748687 36.7901137 31.9748687 36.7901137 23.4291802 32.4417438 23.4291802"></polygon>
                            <polygon id="Fill-90" fill="#7ADAFF" mask="url(#mask-2)" points="32.8604303 31.4767619 36.3714273 31.4767619 36.3714273 23.8830631 32.8604303 23.8830631"></polygon>
                            <polygon id="Fill-91" fill="#FFF5F5" mask="url(#mask-2)" points="32.4417438 28.0270811 36.7901137 28.0270811 36.7901137 27.376861 32.4417438 27.376861"></polygon>
                            <polygon id="Fill-92" fill="#FFF5F5" mask="url(#mask-2)" points="34.2938704 31.7612265 34.9379871 31.7612265 34.9379871 23.6428224 34.2938704 23.6428224"></polygon>
                            <polygon id="Fill-93" fill="#FFF5F5" mask="url(#mask-2)" points="38.2028101 31.9748687 42.55118 31.9748687 42.55118 23.4291802 38.2028101 23.4291802"></polygon>
                            <polygon id="Fill-94" fill="#7ADAFF" mask="url(#mask-2)" points="38.6214965 31.4767619 42.1324936 31.4767619 42.1324936 23.8830631 38.6214965 23.8830631"></polygon>
                            <polygon id="Fill-95" fill="#FFF5F5" mask="url(#mask-2)" points="38.2028101 28.0270811 42.55118 28.0270811 42.55118 27.376861 38.2028101 27.376861"></polygon>
                            <polygon id="Fill-96" fill="#FFF5F5" mask="url(#mask-2)" points="40.0549367 31.7612265 40.6990534 31.7612265 40.6990534 23.6428224 40.0549367 23.6428224"></polygon>
                            <polygon id="Fill-97" fill="#FF5353" mask="url(#mask-2)" points="42.9995005 34.4561094 64.2724975 34.4561094 64.2724975 5.30206564 42.9995005 5.30206564"></polygon>
                            <polygon id="Fill-98" fill="#FFF5F5" mask="url(#mask-2)" points="41.8888595 21.137547 65.3833501 21.137547 65.3833501 19.8790875 41.8888595 19.8790875"></polygon>
                            <polygon id="Fill-99" fill="#BC9C9C" mask="url(#mask-2)" points="41.8888595 21.137547 65.3833501 21.137547 65.3833501 20.8266976 41.8888595 20.8266976"></polygon>
                            <polygon id="Fill-100" fill="#FFF5F5" mask="url(#mask-2)" points="41.8888595 6.50102574 65.3833501 6.50102574 65.3833501 5.24256628 41.8888595 5.24256628"></polygon>
                            <polygon id="Fill-101" fill="#BC9C9C" mask="url(#mask-2)" points="41.8888595 6.50102574 65.3833501 6.50102574 65.3833501 6.19017632 41.8888595 6.19017632"></polygon>
                            <polygon id="Fill-102" fill="#FFF5F5" mask="url(#mask-2)" points="46.5446825 34.4561094 60.7266805 34.4561094 60.7266805 22.108444 46.5446825 22.108444"></polygon>
                            <polygon id="Fill-103" fill="#FFF5F5" mask="url(#mask-2)" points="44.8863412 12.3255534 49.6140267 12.3255534 49.6140267 8.3197619 44.8863412 8.3197619"></polygon>
                            <polygon id="Fill-104" fill="#7ADAFF" mask="url(#mask-2)" points="45.2656568 12.0041287 49.2347112 12.0041287 49.2347112 8.64107979 45.2656568 8.64107979"></polygon>
                            <polygon id="Fill-105" fill="#FFF5F5" mask="url(#mask-2)" points="44.8863412 10.6564736 49.6140267 10.6564736 49.6140267 9.94953153 44.8863412 9.94953153"></polygon>
                            <polygon id="Fill-106" fill="#FFF5F5" mask="url(#mask-2)" points="46.8999733 12.2077297 47.6002888 12.2077297 47.6002888 8.43758559 46.8999733 8.43758559"></polygon>
                            <polygon id="Fill-107" fill="#FFF5F5" mask="url(#mask-2)" points="51.2718388 12.3255534 55.9995242 12.3255534 55.9995242 8.3197619 51.2718388 8.3197619"></polygon>
                            <polygon id="Fill-108" fill="#7ADAFF" mask="url(#mask-2)" points="51.6511543 12.0041287 55.6202087 12.0041287 55.6202087 8.64107979 51.6511543 8.64107979"></polygon>
                            <polygon id="Fill-109" fill="#FFF5F5" mask="url(#mask-2)" points="51.2718388 10.6564736 55.9995242 10.6564736 55.9995242 9.94953153 51.2718388 9.94953153"></polygon>
                            <polygon id="Fill-110" fill="#FFF5F5" mask="url(#mask-2)" points="53.2854708 12.2077297 53.9857864 12.2077297 53.9857864 8.43758559 53.2854708 8.43758559"></polygon>
                            <polygon id="Fill-111" fill="#FFF5F5" mask="url(#mask-2)" points="57.6573363 12.3255534 62.3850218 12.3255534 62.3850218 8.3197619 57.6573363 8.3197619"></polygon>
                            <polygon id="Fill-112" fill="#7ADAFF" mask="url(#mask-2)" points="58.0366518 12.0041287 62.0057062 12.0041287 62.0057062 8.64107979 58.0366518 8.64107979"></polygon>
                            <polygon id="Fill-113" fill="#FFF5F5" mask="url(#mask-2)" points="57.6573363 10.6564736 62.3850218 10.6564736 62.3850218 9.94953153 57.6573363 9.94953153"></polygon>
                            <polygon id="Fill-114" fill="#FFF5F5" mask="url(#mask-2)" points="59.6709683 12.2077297 60.3712839 12.2077297 60.3712839 8.43758559 59.6709683 8.43758559"></polygon>
                            <polygon id="Fill-115" fill="#FFF5F5" mask="url(#mask-2)" points="44.8863412 17.7200193 49.6140267 17.7200193 49.6140267 13.714121 44.8863412 13.714121"></polygon>
                            <polygon id="Fill-116" fill="#7ADAFF" mask="url(#mask-2)" points="45.2656568 17.3985946 49.2347112 17.3985946 49.2347112 14.0355457 45.2656568 14.0355457"></polygon>
                            <polygon id="Fill-117" fill="#FFF5F5" mask="url(#mask-2)" points="44.8863412 16.0509395 49.6140267 16.0509395 49.6140267 15.3439974 44.8863412 15.3439974"></polygon>
                            <polygon id="Fill-118" fill="#FFF5F5" mask="url(#mask-2)" points="46.8999733 17.6021956 47.6002888 17.6021956 47.6002888 13.8320515 46.8999733 13.8320515"></polygon>
                            <polygon id="Fill-119" fill="#FFF5F5" mask="url(#mask-2)" points="51.2718388 17.7200193 55.9995242 17.7200193 55.9995242 13.714121 51.2718388 13.714121"></polygon>
                            <polygon id="Fill-120" fill="#7ADAFF" mask="url(#mask-2)" points="51.6511543 17.3985946 55.6202087 17.3985946 55.6202087 14.0355457 51.6511543 14.0355457"></polygon>
                            <polygon id="Fill-121" fill="#FFF5F5" mask="url(#mask-2)" points="51.2718388 16.0509395 55.9995242 16.0509395 55.9995242 15.3439974 51.2718388 15.3439974"></polygon>
                            <polygon id="Fill-122" fill="#FFF5F5" mask="url(#mask-2)" points="53.2854708 17.6021956 53.9857864 17.6021956 53.9857864 13.8320515 53.2854708 13.8320515"></polygon>
                            <polygon id="Fill-123" fill="#FFF5F5" mask="url(#mask-2)" points="57.6573363 17.7200193 62.3850218 17.7200193 62.3850218 13.714121 57.6573363 13.714121"></polygon>
                            <polygon id="Fill-124" fill="#7ADAFF" mask="url(#mask-2)" points="58.0366518 17.3985946 62.0057062 17.3985946 62.0057062 14.0355457 58.0366518 14.0355457"></polygon>
                            <polygon id="Fill-125" fill="#FFF5F5" mask="url(#mask-2)" points="57.6573363 16.0509395 62.3850218 16.0509395 62.3850218 15.3439974 57.6573363 15.3439974"></polygon>
                            <polygon id="Fill-126" fill="#FFF5F5" mask="url(#mask-2)" points="59.6709683 17.6021956 60.3712839 17.6021956 60.3712839 13.8320515 59.6709683 13.8320515"></polygon>
                            <polygon id="Fill-127" fill="#D8AFAF" mask="url(#mask-2)" points="47.250184 34.4561094 60.021179 34.4561094 60.021179 22.8561918 47.250184 22.8561918"></polygon>
                            <polygon id="Fill-128" fill="#895454" mask="url(#mask-2)" points="49.6140267 33.9872716 57.6573363 33.9872716 57.6573363 24.6080579 49.6140267 24.6080579"></polygon>
                            <polygon id="Fill-129" fill="#BC9C9C" mask="url(#mask-2)" points="49.6139738 24.6081327 47.2501311 22.8562665 60.0211261 22.8562665 57.6572834 24.6081327"></polygon>
                            <polygon id="Fill-130" fill="#FFF5F5" mask="url(#mask-2)" points="46.5446825 34.4561094 60.7266805 34.4561094 60.7266805 33.4848919 46.5446825 33.4848919"></polygon>
                            <polygon id="Fill-131" fill="#D8AFAF" mask="url(#mask-2)" points="46.5446825 34.4561094 60.7266805 34.4561094 60.7266805 33.9706075 46.5446825 33.9706075"></polygon>
                            <polygon id="Fill-132" fill="#FFF5F5" mask="url(#mask-2)" points="45.0101691 35.637444 62.2611939 35.637444 62.2611939 34.4561094 45.0101691 34.4561094"></polygon>
                            <polygon id="Fill-133" fill="#D8AFAF" mask="url(#mask-2)" points="45.0101691 35.637444 62.2611939 35.637444 62.2611939 35.0468301 45.0101691 35.0468301"></polygon>
                            <polygon id="Fill-134" fill="#FFF5F5" mask="url(#mask-2)" points="43.7223591 36.906906 63.549004 36.906906 63.549004 35.5493166 43.7223591 35.5493166"></polygon>
                            <polygon id="Fill-135" fill="#D8AFAF" mask="url(#mask-2)" points="43.7223591 36.906906 63.549004 36.906906 63.549004 36.2280579 43.7223591 36.2280579"></polygon>
                            <polygon id="Fill-136" fill="#7A7A7A" mask="url(#mask-2)" points="53.6356392 0.0175186615 50.8839082 2.11836937 41.8888172 5.24256628 53.6356392 5.24256628"></polygon>
                            <polygon id="Fill-137" fill="#7A7A7A" mask="url(#mask-2)" points="53.6356392 0.0175186615 56.3873701 2.11836937 65.3824611 5.24256628 53.6356392 5.24256628"></polygon>
                            <path d="M50.8839082,2.79486744 C50.8839082,1.26102317 52.1159428,0.0175186615 53.6356392,0.0175186615 C55.1553355,0.0175186615 56.3873701,1.26102317 56.3873701,2.79486744 C56.3873701,4.32871171 55.1553355,5.57221622 53.6356392,5.57221622 C52.1159428,5.57221622 50.8839082,4.32871171 50.8839082,2.79486744" id="Fill-138" fill="#BC9C9C" mask="url(#mask-2)"></path>
                            <path d="M51.2014156,2.79486744 C51.2014156,1.43791892 52.2913128,0.337981982 53.6356392,0.337981982 C54.9799656,0.337981982 56.0698627,1.43791892 56.0698627,2.79486744 C56.0698627,4.15181596 54.9799656,5.2517529 53.6356392,5.2517529 C52.2913128,5.2517529 51.2014156,4.15181596 51.2014156,2.79486744" id="Fill-139" fill="#FFF5F5" mask="url(#mask-2)"></path>
                            <path d="M53.3886184,2.79486744 C53.3886184,2.65717503 53.4992168,2.5456538 53.6356392,2.5456538 C53.7720615,2.5456538 53.8826599,2.65717503 53.8826599,2.79486744 C53.8826599,2.93255985 53.7720615,3.04408108 53.6356392,3.04408108 C53.4992168,3.04408108 53.3886184,2.93255985 53.3886184,2.79486744" id="Fill-140" fill="#BC9C9C" mask="url(#mask-2)"></path>
                            <polygon id="Fill-141" fill="#BC9C9C" mask="url(#mask-2)" points="53.5275279 2.79486744 53.7885035 2.79486744 53.6503399 0.462642214"></polygon>
                            <polygon id="Fill-142" fill="#BC9C9C" mask="url(#mask-2)" points="53.752429 2.85391815 53.5933578 2.69347284 52.3982598 4.03076628"></polygon>
                            <polygon id="Fill-143" fill="#FFF5F5" mask="url(#mask-2)" points="25.8712453 34.4562162 42.9995005 34.4562162 42.9995005 32.9896692 25.8712453 32.9896692"></polygon>
                            <polygon id="Fill-144" fill="#FFF5F5" mask="url(#mask-2)" points="64.2724975 34.4562162 81.4007527 34.4562162 81.4007527 32.9896692 64.2724975 32.9896692"></polygon>
                            <polygon id="Fill-145" fill="#FFF5F5" mask="url(#mask-2)" points="43.7223167 36.9069488 38.5518142 43.3694121 53.7524819 43.3694121 53.7524819 36.9069488"></polygon>
                            <polygon id="Fill-146" fill="#FFF5F5" mask="url(#mask-2)" points="63.4800202 36.9069488 68.6505227 43.3694121 53.449855 43.3694121 53.449855 36.9069488"></polygon>
                            <polygon id="Fill-147" fill="#B3B3B3" mask="url(#mask-2)" points="84.8073956 35.5441892 85.5848655 35.5441892 85.5848655 0.362016731 84.8073956 0.362016731"></polygon>
                            <path d="M84.8073851,0.361931274 C84.8073851,0.361931274 86.3104652,-0.62477529 89.2386244,0.742214414 C92.1667837,2.1090973 94.283394,1.90325302 95.4123445,0.742214414 L95.4123445,5.84783604 C95.4123445,5.84783604 92.2548391,7.42323372 89.2385186,5.26031995 C87.3518895,3.90753745 84.8073851,5.31960566 84.8073851,5.31960566 L84.8073851,0.361931274 Z" id="Fill-148" fill="#4099FF" mask="url(#mask-2)"></path>
                            <polygon id="Fill-149" fill="#FFF5F5" mask="url(#mask-2)" points="82.5752127 35.3367426 87.8170485 35.3367426 87.8170485 34.155408 82.5752127 34.155408"></polygon>
                            <polygon id="Fill-150" fill="#D8AFAF" mask="url(#mask-2)" points="82.5752127 35.3367426 87.8170485 35.3367426 87.8170485 34.7461287 82.5752127 34.7461287"></polygon>
                            <polygon id="Fill-151" fill="#FFF5F5" mask="url(#mask-2)" points="80.8093422 37.3140013 89.5830247 37.3140013 89.5830247 35.3367426 80.8093422 35.3367426"></polygon>
                            <polygon id="Fill-152" fill="#D8AFAF" mask="url(#mask-2)" points="80.8093422 37.3140013 89.5830247 37.3140013 89.5830247 36.3253719 80.8093422 36.3253719"></polygon>
                        </g>
                    </g>
                </g>
            </g>
        </g>
    </g>
</svg>