<?xml version="1.0" encoding="UTF-8"?>
<svg width="53px" height="53px" viewBox="0 0 53 53" version="1.1" xmlns="http://www.w3.org/2000/svg" xmlns:xlink="http://www.w3.org/1999/xlink">
    <!-- Generator: Sketch 47.1 (45422) - http://www.bohemiancoding.com/sketch -->
    <title>house size icon</title>
    <desc>Created with Sketch.</desc>
    <defs>
        <polygon id="path-1" points="0 52.0796798 52.7566117 52.0796798 52.7566117 0.0825024631 0 0.0825024631"></polygon>
    </defs>
    <g id="Listing-site" stroke="none" stroke-width="1" fill="none" fill-rule="evenodd">
        <g id="property-listing" transform="translate(-608.000000, -1203.000000)">
            <g id="Group-12" transform="translate(42.000000, 1126.000000)">
                <g id="High-light-features">
                    <g id="house-size-icon" transform="translate(566.000000, 77.000000)">
                        <polygon id="Fill-1" fill="#926F5C" points="36.8818252 17.0465558 43.5786068 17.0465558 43.5786068 3.52904286 36.8818252 3.52904286"></polygon>
                        <polygon id="Fill-2" fill="#6E5345" points="35.968733 4.44430456 44.4919563 4.44430456 44.4919563 2.61403898 35.968733 2.61403898"></polygon>
                        <polygon id="Fill-3" fill="#FEC66F" points="3.82317816 20.4017247 3.82317816 52.2548944 48.933382 52.2548944 48.933382 20.4017247 26.3782801 1.43595537"></polygon>
                        <polygon id="Fill-4" fill="#C6C6C5" points="1.15750971 52.2549975 51.5988447 52.2549975 51.5988447 50.9658966 1.15750971 50.9658966"></polygon>
                        <polygon id="Fill-5" fill="#6E5345" points="26.3783316 0.257794415 2.57281554e-05 22.4383238 1.15753544 23.8207557 26.3783316 2.6140132 51.5988704 23.8207557 52.7563801 22.4383238"></polygon>
                        <polygon id="Fill-6" fill="#FFFFFF" points="7.37703398 44.3840047 17.6752427 44.3840047 17.6752427 28.536055 7.37703398 28.536055"></polygon>
                        <polygon id="Fill-7" fill="#89D9F0" points="8.14887864 43.6105442 16.9033981 43.6105442 16.9033981 29.3095156 8.14887864 29.3095156"></polygon>
                        <polygon id="Fill-8" fill="#FFFFFF" points="12.1403447 43.9972744 12.9121893 43.9972744 12.9121893 28.9227853 12.1403447 28.9227853"></polygon>
                        <polygon id="Fill-9" fill="#FFFFFF" points="7.76295631 36.8466313 17.2893204 36.8466313 17.2893204 36.0731707 7.76295631 36.0731707"></polygon>
                        <polygon id="Fill-10" fill="#FFFFFF" points="35.0813689 44.3840047 45.3795777 44.3840047 45.3795777 28.536055 35.0813689 28.536055"></polygon>
                        <polygon id="Fill-11" fill="#89D9F0" points="35.8532136 43.6105442 44.607733 43.6105442 44.607733 29.3095156 35.8532136 29.3095156"></polygon>
                        <polygon id="Fill-12" fill="#FFFFFF" points="39.8444223 43.9972744 40.616267 43.9972744 40.616267 28.9227853 39.8444223 28.9227853"></polygon>
                        <polygon id="Fill-13" fill="#FFFFFF" points="35.4672913 36.8466313 44.9936553 36.8466313 44.9936553 36.0731707 35.4672913 36.0731707"></polygon>
                        <polygon id="Fill-14" fill="#6E5345" points="21.2293301 48.5256284 31.5275388 48.5256284 31.5275388 26.7555488 21.2293301 26.7555488"></polygon>
                        <polygon id="Fill-15" fill="#926F5C" points="22.2584563 47.4943476 30.4984126 47.4943476 30.4984126 27.7868296 22.2584563 27.7868296"></polygon>
                        <polygon id="Fill-16" fill="#9C9B9B" points="20.4574854 50.9658966 32.2993835 50.9658966 32.2993835 48.5256284 20.4574854 48.5256284"></polygon>
                        <g id="Group-24" transform="translate(0.000000, 0.175318)">
                            <path d="M30.498284,16.8711091 C30.498284,19.151271 28.6538325,20.9998418 26.3781772,20.9998418 C24.1027791,20.9998418 22.2583277,19.151271 22.2583277,16.8711091 C22.2583277,14.5909473 24.1027791,12.7423765 26.3781772,12.7423765 C28.6538325,12.7423765 30.498284,14.5909473 30.498284,16.8711091 Z" id="Fill-17" fill="#FFFFFF"></path>
                            <path d="M26.3782801,13.5159144 C28.2245325,13.5159144 29.7265422,15.0210688 29.7265422,16.8711865 C29.7265422,18.7210464 28.2245325,20.2262007 26.3782801,20.2262007 C24.5320277,20.2262007 23.030018,18.7210464 23.030018,16.8711865 C23.030018,15.0210688 24.5320277,13.5159144 26.3782801,13.5159144" id="Fill-19" fill="#89D9F0"></path>
                            <mask id="mask-2" fill="white">
                                <use xlink:href="#path-1"></use>
                            </mask>
                            <g id="Clip-22"></g>
                            <polygon id="Fill-21" fill="#FFFFFF" mask="url(#mask-2)" points="22.6441214 17.2577105 30.112233 17.2577105 30.112233 16.4842499 22.6441214 16.4842499"></polygon>
                            <polygon id="Fill-23" fill="#FFFFFF" mask="url(#mask-2)" points="25.9923835 20.6129826 26.7642282 20.6129826 26.7642282 13.1292357 25.9923835 13.1292357"></polygon>
                        </g>
                    </g>
                </g>
            </g>
        </g>
    </g>
</svg>