<?xml version="1.0" encoding="UTF-8"?>
<svg width="28px" height="20px" viewBox="0 0 28 20" version="1.1" xmlns="http://www.w3.org/2000/svg" xmlns:xlink="http://www.w3.org/1999/xlink">
    <!-- Generator: Sketch 47.1 (45422) - http://www.bohemiancoding.com/sketch -->
    <title>Fill 3</title>
    <desc>Created with Sketch.</desc>
    <defs></defs>
    <g id="Listing-site" stroke="none" stroke-width="1" fill="none" fill-rule="evenodd">
        <g id="property-listing" transform="translate(-174.000000, -4318.000000)" fill="#142F87">
            <g id="neighborhood" transform="translate(43.000000, 4171.000000)">
                <g id="Group-33" transform="translate(2.000000, 55.000000)">
                    <path d="M151.108062,94.5053197 C150.020797,94.5053197 148.984478,94.7924808 148.092001,95.3295141 C147.76329,94.5604092 147.244941,93.867468 146.572453,93.312532 C145.546757,92.4661381 144.230777,92 142.866832,92 C141.502887,92 140.186907,92.4661381 139.161211,93.3125831 C138.488777,93.8675192 137.970428,94.5604604 137.641664,95.3295652 C136.749186,94.792532 135.712868,94.5053708 134.625603,94.5053708 C131.519302,94.5053197 128.992161,96.8903836 128.992161,99.822046 C128.992161,102.493197 131.090217,104.710537 133.812634,105.083581 L133.812634,112 L151.920976,112 L151.920976,105.083581 C154.643447,104.710537 156.741503,102.493197 156.741503,99.822046 C156.741503,96.8903836 154.214362,94.5053197 151.108062,94.5053197" id="Fill-3"></path>
                </g>
            </g>
        </g>
    </g>
</svg>