<?xml version="1.0" encoding="UTF-8"?>
<svg width="22px" height="19px" viewBox="0 0 22 19" version="1.1" xmlns="http://www.w3.org/2000/svg" xmlns:xlink="http://www.w3.org/1999/xlink">
    <!-- Generator: Sketch 47.1 (45422) - http://www.bohemiancoding.com/sketch -->
    <title>heart</title>
    <desc>Created with Sketch.</desc>
    <defs></defs>
    <g id="Listing-site" stroke="none" stroke-width="1" fill="none" fill-rule="evenodd">
        <g id="property-listing" transform="translate(-697.000000, -755.000000)" fill="#fff">
            <g id="General-information-section" transform="translate(43.000000, 622.000000)">
                <g id="heart" transform="translate(654.000000, 133.000000)">
                    <path d="M20.1887249,1.77110811 C19.0387884,0.643546547 17.5162487,0.0272732733 15.8911587,0.0272732733 C14.2663016,0.0272732733 12.7389894,0.648225225 11.5890529,1.77555856 L10.988418,2.36438739 L10.3784127,1.76642943 C9.22830159,0.639096096 7.69662434,0.0136936937 6.07153439,0.0136936937 C4.45121693,0.0136936937 2.92413757,0.634417417 1.77856614,1.7573003 C0.62862963,2.8848048 -0.00453968254,4.38192492 7.47761567e-14,5.97501502 C7.47761567e-14,7.56793393 0.637941799,9.0606036 1.78787831,10.1881081 L10.5321217,18.7603033 C10.6530635,18.8790961 10.8160847,18.9430571 10.9743333,18.9430571 C11.1327566,18.9430571 11.2957778,18.8835465 11.4167196,18.764982 L20.1794127,10.2064234 C21.3295238,9.07886186 21.9626931,7.5817988 21.9626931,5.98865165 C21.9674656,4.39573273 21.3388942,2.89844144 20.1887249,1.77110811 Z M19.2948148,9.33447748 L10.9743333,17.4595736 L2.67270899,9.3208979 C1.7601164,8.42624324 1.25725926,7.23945646 1.25725926,5.97501502 C1.25725926,4.71063063 1.75534392,3.52384384 2.66793651,2.63386787 C3.57593122,1.74366366 4.78657143,1.25069069 6.07153439,1.25069069 C7.36126984,1.25069069 8.57644974,1.74366366 9.48904233,2.63831832 L10.5414339,3.6697958 C10.7880899,3.91183183 11.1839153,3.91183183 11.4308042,3.6697958 L12.4736508,2.64744745 C13.3862434,1.75279279 14.6014233,1.25981982 15.886619,1.25981982 C17.171582,1.25981982 18.3822222,1.75279279 19.2948148,2.64276877 C20.2073492,3.53765165 20.7057249,4.72426727 20.7057249,5.98865165 C20.7102646,7.25303604 20.2073492,8.43987988 19.2948148,9.33447748 Z" id="Fill-1"></path>
                </g>
            </g>
        </g>
    </g>
</svg>
