<?xml version="1.0" encoding="UTF-8"?>
<svg width="10px" height="30px" viewBox="0 0 10 30" version="1.1" xmlns="http://www.w3.org/2000/svg" xmlns:xlink="http://www.w3.org/1999/xlink">
    <!-- Generator: Sketch 47.1 (45422) - http://www.bohemiancoding.com/sketch -->
    <title>thermometer-outlined-symbol-of-stroke</title>
    <desc>Created with Sketch.</desc>
    <defs>
        <polygon id="path-1" points="5.00068627 0.00260869565 0.00392156863 0.00260869565 0.00392156863 29.9348478 9.99745098 29.9348478 9.99745098 0.00260869565 5.00068627 0.00260869565"></polygon>
    </defs>
    <g id="Listing-site" stroke="none" stroke-width="1" fill="none" fill-rule="evenodd">
        <g id="property-listing" transform="translate(-302.000000, -1514.000000)">
            <g id="section-3" transform="translate(44.000000, 1441.000000)">
                <g id="thermometer-outlined-symbol-of-stroke" transform="translate(258.000000, 73.000000)">
                    <mask id="mask-2" fill="white">
                        <use xlink:href="#path-1"></use>
                    </mask>
                    <g id="Clip-2"></g>
                    <path d="M5.99751634,22.1556522 L5.99751634,11.9766522 C5.99751634,11.3763913 5.6,10.98 4.99869281,10.98 C4.39745098,10.98 3.99993464,11.4808696 3.99993464,11.9766522 L3.99993464,22.1505652 C2.79745098,22.5523043 2.00267974,23.6477609 2.00267974,24.9416087 C2.00267974,26.6372609 3.3045098,27.9365217 5.00385621,27.9365217 C6.70320261,27.9365217 8.00522876,26.6372609 8.00522876,24.9416087 C7.99986928,23.6531087 7.2,22.5573913 5.99751634,22.1556522 Z" id="Fill-1" fill="#F57F1D" mask="url(#mask-2)"></path>
                    <path d="M7.99986928,20.9608043 L7.99986928,2.99752174 C7.99986928,1.30186957 6.69803922,0.00260869565 4.99869281,0.00260869565 C3.29934641,0.00260869565 1.99732026,1.40093478 1.99732026,2.99752174 L1.99732026,20.9557174 C0.794771242,21.8529783 0,23.3504348 0,24.9469565 C0,27.7383261 2.20130719,29.9348478 4.99869281,29.9348478 C7.79614379,29.9348478 9.99745098,27.7383261 9.99745098,24.9469565 C9.99745098,23.3504348 9.19732026,21.8583261 7.99986928,20.9608043 Z M4.99869281,28.9436087 C2.79745098,28.9436087 0.99875817,27.1485652 0.99875817,24.9521087 C0.99875817,23.454913 1.79869281,22.161 2.99607843,21.4616739 L2.99607843,2.99752174 C2.99607843,1.90180435 3.89555556,1.00428261 4.99333333,1.00428261 C6.09143791,1.00428261 6.99091503,1.90180435 6.99091503,2.99752174 L6.99091503,21.456587 C8.19339869,22.1556522 8.98823529,23.4495652 8.98823529,24.9469565 C8.99869281,27.1434783 7.2,28.9436087 4.99869281,28.9436087 Z" id="Fill-3" fill="#F57F1D" mask="url(#mask-2)"></path>
                </g>
            </g>
        </g>
    </g>
</svg>