<?xml version="1.0" encoding="UTF-8"?>
<svg width="26px" height="22px" viewBox="0 0 26 22" version="1.1" xmlns="http://www.w3.org/2000/svg" xmlns:xlink="http://www.w3.org/1999/xlink">
    <!-- Generator: Sketch 47.1 (45422) - http://www.bohemiancoding.com/sketch -->
    <title>hot-chocolate-cup</title>
    <desc>Created with Sketch.</desc>
    <defs></defs>
    <g id="Listing-site" stroke="none" stroke-width="1" fill="none" fill-rule="evenodd">
        <g id="property-listing" transform="translate(-174.000000, -4597.000000)" fill="#142F87">
            <g id="neighborhood" transform="translate(43.000000, 4171.000000)">
                <g id="Group-33" transform="translate(2.000000, 55.000000)">
                    <g id="hot-chocolate-cup" transform="translate(128.992161, 371.000000)">
                        <path d="M5.83895506,17.136458 L13.9301832,17.136458 C19.3898902,14.4729161 18.7342934,6.16137991 18.7342934,6.16137991 L18.7342934,6.03846964 L1.05458746,6.03846964 L1.05458746,6.16137991 C1.05458746,6.1615567 0.379485934,14.4729161 5.83895506,17.136458 Z" id="Fill-1"></path>
                        <g id="Group-7">
                            <path d="M8.46230427,5.76542411 C8.16270316,4.63713839 8.89669417,3.94060268 8.91181166,3.92641071 C8.91260453,3.92567411 8.9123931,3.92582143 8.91345027,3.92508482 C10.0943057,2.95772321 9.78418582,1.9903125 9.40609007,1.41791964 C9.36602344,1.35732143 9.26939838,1.40353125 9.29355464,1.47105357 C9.42448477,1.83513393 9.27336276,2.22455357 8.38343962,3.18921429 C7.38674262,4.26942411 7.99234071,5.34938839 8.35119603,5.81610268 C8.39189695,5.86904018 8.47879608,5.82857589 8.46230427,5.76542411 Z" id="Fill-2"></path>
                            <path d="M13.5364942,5.76891071 C13.1002014,4.29510714 14.0638091,3.3818125 14.0819923,3.36477232 C14.0828381,3.36398661 14.0828381,3.36437946 14.0836309,3.36359375 C15.6774687,2.05803125 15.1226675,0.752861607 14.6083029,0.0546071429 C14.5651705,-0.00407589286 14.4660611,0.0490580357 14.4990976,0.113142857 C14.7596364,0.623955357 14.6599455,1.08241964 13.4136514,2.4330625 C12.1037158,3.85275 12.9843888,5.2724375 13.4260202,5.81973661 C13.4685712,5.87208482 13.5550475,5.83181696 13.5364942,5.76891071 Z" id="Fill-4"></path>
                            <path d="M21.6157869,20.0270223 L0.531860692,20.0270223 C0.0731030945,20.0270223 -0.16951672,20.5309598 0.136057386,20.8488304 L1.08586903,21.8355402 C1.18640561,21.9402857 1.33033889,21.9999509 1.4814609,21.9999509 L20.6659752,21.9999509 C20.8168858,21.9999509 20.9608191,21.9402857 21.0617785,21.8355402 L22.0111673,20.8488304 C22.3167414,20.5309598 22.0741216,20.0270223 21.6157869,20.0270223 Z" id="Fill-5"></path>
                            <path d="M25.8793412,10.7478839 C25.8793412,7.48437054 22.5713601,7.68197768 21.907935,7.75445982 C21.9093621,8.16460268 21.8972047,8.68538393 21.8548652,9.27967857 C22.3371976,9.17684821 24.2134575,8.83653571 24.1071065,10.7260313 C24.1071065,10.7260313 23.9122178,13.2972321 20.8028784,14.304125 C20.5074002,15.0838973 20.1361232,15.8562054 19.6667939,16.5841696 C26.027186,14.2723036 25.8793412,10.7478839 25.8793412,10.7478839 Z" id="Fill-6"></path>
                        </g>
                    </g>
                </g>
            </g>
        </g>
    </g>
</svg>