<?xml version="1.0" encoding="UTF-8"?>
<svg width="27px" height="30px" viewBox="0 0 27 30" version="1.1" xmlns="http://www.w3.org/2000/svg" xmlns:xlink="http://www.w3.org/1999/xlink">
    <!-- Generator: Sketch 47.1 (45422) - http://www.bohemiancoding.com/sketch -->
    <title>house</title>
    <desc>Created with Sketch.</desc>
    <defs>
        <polygon id="path-1" points="0.00458400974 0.0393460836 0.00458400974 29.4140625 26.6881047 29.4140625 26.6881047 0.0393460836"></polygon>
    </defs>
    <g id="Symbols" stroke="none" stroke-width="1" fill="none" fill-rule="evenodd">
        <g id="list-style-1" transform="translate(-12.000000, -295.000000)">
            <g id="house" transform="translate(12.000000, 295.000000)">
                <mask id="mask-2" fill="white">
                    <use xlink:href="#path-1"></use>
                </mask>
                <g id="Clip-2"></g>
                <path d="M22.6648722,5.05371794 L19.7195695,0.0393460836 L6.96822961,0.0393460836 L4.02323255,5.05371794 L4.02323255,18.6809857 L22.6648722,18.6809857 L22.6648722,5.05371794 Z M8.01781504,1.87294998 L18.6699841,1.87294998 L20.1463408,4.38643892 L6.5417639,4.38643892 L8.01781504,1.87294998 Z M12.0574736,16.8473818 L14.6306311,16.8473818 L14.6306311,11.3609333 L12.0574736,11.3609333 L12.0574736,16.8473818 Z M16.464235,16.8473818 L16.464235,9.52732944 L10.2238697,9.52732944 L10.2238697,16.8473818 L5.85683644,16.8473818 L5.85683644,6.22004282 L20.8312683,6.22004282 L20.8312683,16.8473818 L16.464235,16.8473818 Z" id="Fill-1" fill="#000000" mask="url(#mask-2)"></path>
                <polygon id="Fill-3" fill="#000000" mask="url(#mask-2)" points="22.3724123 20.7832126 21.075978 22.0796469 23.1782048 24.1817974 3.50989986 24.1817974 5.61212672 22.0796469 4.31538677 20.7832126 0 25.0985993 4.31538677 29.4140625 5.61212672 28.1176281 3.50989986 26.0154013 23.1782048 26.0154013 21.075978 28.1176281 22.3724123 29.4140625 26.6881047 25.0985993"></polygon>
            </g>
        </g>
    </g>
</svg>