<?xml version="1.0" encoding="UTF-8"?>
<svg width="22px" height="24px" viewBox="0 0 22 24" version="1.1" xmlns="http://www.w3.org/2000/svg" xmlns:xlink="http://www.w3.org/1999/xlink">
    <!-- Generator: Sketch 47.1 (45422) - http://www.bohemiancoding.com/sketch -->
    <title>note</title>
    <desc>Created with Sketch.</desc>
    <defs>
        <polygon id="path-1" points="10.986728 0.0114018667 0.00190751445 0.0114018667 0.00190751445 23.7222487 21.9715485 23.7222487 21.9715485 0.0114018667"></polygon>
    </defs>
    <g id="Listing-site" stroke="none" stroke-width="1" fill="none" fill-rule="evenodd">
        <g id="property-listing" transform="translate(-61.000000, -1036.000000)">
            <g id="Property-description" transform="translate(42.000000, 831.000000)">
                <g id="Group-54" transform="translate(1.000000, 193.000000)">
                    <g id="note" transform="translate(18.000000, 12.000000)">
                        <g id="Group-5">
                            <mask id="mask-2" fill="white">
                                <use xlink:href="#path-1"></use>
                            </mask>
                            <g id="Clip-2"></g>
                            <path d="M0,22.3818643 C0,23.1217187 0.602806358,23.7222487 1.34543353,23.7222487 L15.7712659,23.7222487 C16.5140202,23.7222487 17.1166994,23.1217187 17.1166994,22.3818643 L17.1166994,14.8009215 L16.1427225,16.9115654 C15.9925694,17.2384189 15.7459277,17.501802 15.4330954,17.6792277 L15.4280087,17.6818248 L15.422922,17.6842952 L12.6073671,19.2171495 C12.4369624,19.3109298 12.2437312,19.3590711 12.0478931,19.3590711 C11.7858642,19.3590711 11.5290491,19.2703582 11.3254855,19.1082933 C11.1119075,18.9385639 10.9618815,18.7002649 10.9058642,18.4318142 L10.3845405,15.9360406 L4.1253815,15.9360406 C3.77430347,15.9360406 3.48954335,15.6522292 3.48954335,15.3026036 C3.48954335,14.952978 3.77430347,14.6691666 4.1253815,14.6691666 L10.2496474,14.6691666 C10.2751127,14.5323125 10.3183497,14.3979605 10.376815,14.2712731 L11.1932312,12.5027169 L4.1253815,12.5027169 C3.77430347,12.5027169 3.48954335,12.2190321 3.48954335,11.8692799 C3.48954335,11.5196543 3.77430347,11.2358428 4.1253815,11.2358428 L11.7782659,11.2358428 L14.8684393,4.54937647 L15.1863584,3.8601653 L15.1914451,3.8627624 L15.2117919,3.81709159 L15.9493642,2.223364 C15.8908671,2.2158261 15.8298902,2.21072693 15.7687861,2.21072693 L6.16006358,2.21072693 L6.16006358,2.65413286 C6.16515029,2.69967698 6.16763006,2.74778652 6.16763006,2.79605443 L6.16763006,6.46739215 C6.16763006,7.50873097 5.31818208,8.35506619 4.27276879,8.35506619 L0.584907514,8.35506619 C0.546789017,8.35506619 0.506190751,8.3524691 0.467945087,8.34999869 L0,8.34999869 L0,22.3818643 Z M4.1253815,17.8996955 L8.83058382,17.8996955 C9.18153468,17.8996955 9.46642197,18.1835069 9.46642197,18.5331325 C9.46642197,18.8827581 9.18153468,19.1665695 8.83058382,19.1665695 L4.1253815,19.1665695 C3.77430347,19.1665695 3.48954335,18.8827581 3.48954335,18.5331325 C3.48954335,18.1835069 3.77430347,17.8996955 4.1253815,17.8996955 Z" id="Fill-1" fill="#FF7409" mask="url(#mask-2)"></path>
                            <path d="M4.27276879,7.59234465 C4.89843353,7.59234465 5.40462428,7.08819212 5.40462428,6.46492174 L5.40462428,2.79098693 C5.40462428,2.45136966 5.1248237,2.22596109 4.83484971,2.22596109 C4.6950289,2.22596109 4.5551763,2.27657271 4.43821387,2.39309345 L0.18566474,6.6295837 C-0.170372832,6.98427677 0.0813554913,7.59234465 0.584907514,7.59234465 L4.27276879,7.59234465 Z" id="Fill-3" fill="#FF7409" mask="url(#mask-2)"></path>
                            <path d="M21.2319075,1.07563943 L19.1641936,0.127954281 C18.9911821,0.049376417 18.8106358,0.0114018667 18.6325376,0.0114018667 C18.1519393,0.0114018667 17.6915607,0.285078339 17.4753757,0.74875425 L17.0429422,1.68370732 L21.4150925,3.68533668 L21.4201792,3.68780709 L21.8524538,2.75288569 C22.150026,2.11944865 21.8703526,1.3669888 21.2319075,1.07563943 Z" id="Fill-4" fill="#FF7409" mask="url(#mask-2)"></path>
                        </g>
                        <polygon id="Fill-6" fill="#FF770D" points="21.0792746 4.41762157 21.0996532 4.37964702 16.7200636 2.37542056 16.7021647 2.41339511 16.6487861 2.52994753 15.9086069 4.13121301 17.1166994 4.68623054 20.2857168 6.13543947"></polygon>
                        <polygon id="Fill-7" fill="#FF770D" points="17.1166994 12.9816586 19.9398526 6.87022643 17.1166994 5.57810989 15.5627746 4.86609499 11.1882717 14.3321464 11.8977399 14.6691666 15.542396 16.392052"></polygon>
                        <path d="M10.9898266,15.0821359 C10.9924335,15.1099754 10.9975202,15.1379417 11.0024798,15.1631524 L11.1628064,15.9360406 L11.6510983,18.2797577 C11.6918555,18.4748563 11.8647081,18.5989466 12.0478931,18.5989466 C12.1114769,18.5989466 12.1775405,18.5837124 12.2411243,18.548335 L15.056711,17.015354 C15.0617977,17.0128836 15.0642775,17.0102865 15.0693642,17.0078161 L12.7981185,15.9334436 L10.9898266,15.0821359 Z" id="Fill-8" fill="#FF770D"></path>
                    </g>
                </g>
            </g>
        </g>
    </g>
</svg>