<?xml version="1.0" encoding="UTF-8"?>
<svg width="35px" height="35px" viewBox="0 0 35 35" version="1.1" xmlns="http://www.w3.org/2000/svg" xmlns:xlink="http://www.w3.org/1999/xlink">
    <!-- Generator: Sketch 47.1 (45422) - http://www.bohemiancoding.com/sketch -->
    <title>parking-sign</title>
    <desc>Created with Sketch.</desc>
    <defs>
        <polygon id="path-1" points="17.4117849 0.316129032 0.144516129 0.316129032 0.144516129 34.9951828 34.6790538 34.9951828 34.6790538 0.316129032 17.4117849 0.316129032"></polygon>
    </defs>
    <g id="Listing-site" stroke="none" stroke-width="1" fill="none" fill-rule="evenodd">
        <g id="property-listing" transform="translate(-288.000000, -1574.000000)">
            <g id="section-3" transform="translate(44.000000, 1441.000000)">
                <g id="parking-sign" transform="translate(244.000000, 133.000000)">
                    <g id="Group-3">
                        <mask id="mask-2" fill="white">
                            <use xlink:href="#path-1"></use>
                        </mask>
                        <g id="Clip-2"></g>
                        <path d="M30.8325161,0.316129032 L3.85858065,0.316129032 C1.73178495,0.316129032 0,2.04791398 0,4.17470968 L0,31.1486452 C0,33.2658065 1.73178495,34.9951828 3.85858065,34.9951828 L30.8325161,34.9951828 C32.9496774,34.9951828 34.6790538,33.2658065 34.6790538,31.1486452 L34.6790538,4.17470968 C34.6790538,2.04791398 32.9496774,0.316129032 30.8325161,0.316129032 Z M13.1052043,20.3556989 L13.1052043,27.2900645 L9.6344086,27.2900645 L9.6344086,8.02124731 L17.9224086,8.02124731 C20.8127312,8.02124731 22.1567312,8.60412903 23.3152688,9.76266667 C24.6592688,10.9091613 25.0446452,12.4530753 25.0446452,14.1944946 C25.0446452,16.1141505 24.4713978,17.6556559 23.3152688,18.6263226 C22.1567312,19.5849462 20.8127312,20.1581935 17.9224086,20.1581935 L13.1052043,20.1581935 L13.1052043,20.3556989 Z" id="Fill-1" fill="#F57F1D" mask="url(#mask-2)"></path>
                    </g>
                    <path d="M13.1052043,17.6556559 L13.1052043,10.7212903 L17.5370323,10.7212903 C18.8834409,10.7212903 19.8420645,11.1066667 20.4249462,11.879828 C21.0006022,12.6505806 21.3859785,13.223828 21.3859785,14.1944946 C21.3859785,15.3409892 21.0006022,15.923871 20.4249462,16.6970323 C19.8420645,17.2702796 19.0809462,17.6556559 17.7249032,17.6556559 L13.1052043,17.6556559 Z" id="Fill-4" fill="#F57F1D"></path>
                </g>
            </g>
        </g>
    </g>
</svg>
