<?xml version="1.0" encoding="UTF-8"?>
<svg width="22px" height="25px" viewBox="0 0 22 25" version="1.1" xmlns="http://www.w3.org/2000/svg" xmlns:xlink="http://www.w3.org/1999/xlink">
    <!-- Generator: Sketch 47.1 (45422) - http://www.bohemiancoding.com/sketch -->
    <title>pills</title>
    <desc>Created with Sketch.</desc>
    <defs></defs>
    <g id="Listing-site" stroke="none" stroke-width="1" fill="none" fill-rule="evenodd">
        <g id="property-listing" transform="translate(-177.000000, -4460.000000)" fill="#142F87">
            <g id="neighborhood" transform="translate(43.000000, 4171.000000)">
                <g id="Group-33" transform="translate(2.000000, 55.000000)">
                    <g id="pills" transform="translate(132.164100, 234.000000)">
                        <path d="M20.2339264,0.0237526132 L0.905578819,0.0237526132 C0.405333534,0.0237526132 0,0.397634146 0,0.859003484 L0,5.18772474 C0,5.64909408 0.405333534,6.02297561 0.905578819,6.02297561 L20.2339264,6.02297561 C20.7341075,6.02297561 21.139441,5.64909408 21.139441,5.18772474 L21.139441,0.859003484 C21.139441,0.397634146 20.7341075,0.0237526132 20.2339264,0.0237526132 Z" id="Fill-1"></path>
                        <path d="M1.28484052,7.91358885 L1.28484052,20.6503798 C1.28484052,22.6548397 3.05278056,24.2855958 5.22611835,24.2855958 L15.9133869,24.2855958 C18.0866604,24.2855958 19.8546647,22.6550767 19.8546647,20.6503798 L19.8546647,7.91358885 L1.28484052,7.91358885 Z M16.9644157,20.1647247 C16.9644157,20.6804704 16.5111125,21.0985993 15.9519809,21.0985993 L5.18746012,21.0985993 C4.62832845,21.0985993 4.17508952,20.6804704 4.17508952,20.1647247 L4.17508952,12.1526899 C4.17508952,11.6369443 4.62832845,11.2188746 5.18746012,11.2188746 L15.9519809,11.2188746 C16.5111125,11.2188746 16.9644157,11.6369443 16.9644157,12.1526899 L16.9644157,20.1647247 Z" id="Fill-2"></path>
                        <path d="M13.3218723,15.3066934 L11.4932478,15.3066934 L11.4932478,13.6199024 C11.4932478,13.1495296 11.079823,12.7679477 10.5696242,12.7679477 C10.059618,12.7679477 9.64600056,13.1495296 9.64600056,13.6199024 L9.64600056,15.3066934 L7.81756873,15.3066934 C7.30736991,15.3066934 6.89394512,15.688216 6.89394512,16.1588258 C6.89394512,16.6292578 7.30736991,17.0107805 7.81756873,17.0107805 L9.64600056,17.0107805 L9.64600056,18.6973345 C9.64600056,19.1679443 10.059618,19.5492892 10.5696242,19.5492892 C11.079823,19.5492892 11.4932478,19.1679443 11.4932478,18.6973345 L11.4932478,17.0107805 L13.3218723,17.0107805 C13.8320711,17.0107805 14.2454959,16.6292578 14.2454959,16.1588258 C14.2454959,15.688216 13.8320711,15.3066934 13.3218723,15.3066934 Z" id="Fill-3"></path>
                    </g>
                </g>
            </g>
        </g>
    </g>
</svg>