<?xml version="1.0" encoding="UTF-8"?>
<svg width="39px" height="18px" viewBox="0 0 39 18" version="1.1" xmlns="http://www.w3.org/2000/svg" xmlns:xlink="http://www.w3.org/1999/xlink">
    <!-- Generator: Sketch 47.1 (45422) - http://www.bohemiancoding.com/sketch -->
    <title>send</title>
    <desc>Created with Sketch.</desc>
    <defs>
        <polygon id="path-1" points="0.0045703125 17.9953648 39 17.9953648 39 0.0682145923 0.0045703125 0.0682145923"></polygon>
    </defs>
    <g id="Symbols" stroke="none" stroke-width="1" fill="none" fill-rule="evenodd">
        <g id="footer" transform="translate(-135.000000, -307.000000)">
            <g id="Support-infor-colum">
                <g transform="translate(135.000000, 151.000000)">
                    <g id="send" transform="translate(0.000000, 156.000000)">
                        <g id="Group-4">
                            <mask id="mask-2" fill="white">
                                <use xlink:href="#path-1"></use>
                            </mask>
                            <g id="Clip-2"></g>
                            <path d="M13.8260332,16.4241888 L13.8260332,2.69088412 L25.1418984,12.155176 C25.2853301,12.2751502 25.4606777,12.335176 25.6361016,12.335176 C25.810916,12.335176 25.9858066,12.2755365 26.1290859,12.1562575 L37.4462461,2.73406867 L37.4462461,16.4241888 L13.8260332,16.4241888 Z M36.3066387,1.64402575 L25.6373203,10.5269871 L15.0165234,1.64402575 L36.3066387,1.64402575 Z M38.223123,0.0682145923 L13.0491563,0.0682145923 C12.6200801,0.0682145923 12.2722793,0.42095279 12.2722793,0.856120172 L12.2722793,2.34208584 L4.86761133,2.34208584 C4.43853516,2.34208584 4.09073438,2.69482403 4.09073438,3.12999142 C4.09073438,3.5651588 4.43853516,3.917897 4.86761133,3.917897 L12.2722793,3.917897 L12.2722793,14.1502403 L7.84661719,14.1502403 C7.41754102,14.1502403 7.06974023,14.5029785 7.06974023,14.9381459 C7.06974023,15.3733133 7.41754102,15.7261288 7.84661719,15.7261288 L12.2722793,15.7261288 L12.2722793,17.2120172 C12.2722793,17.6471845 12.6200801,18 13.0491563,18 L38.223123,18 C38.6521992,18 39,17.6471845 39,17.2120172 L39,0.856120172 C39,0.42095279 38.6521992,0.0682145923 38.223123,0.0682145923 L38.223123,0.0682145923 Z" id="Fill-1" fill="#6B6B6B" mask="url(#mask-2)"></path>
                            <path d="M9.89266992,8.95434335 C9.89266992,8.51917597 9.54479297,8.16636052 9.1157168,8.16636052 L0.776876953,8.16636052 C0.347800781,8.16636052 0,8.51917597 0,8.95434335 C0,9.38951073 0.347800781,9.74224893 0.776876953,9.74224893 L9.1157168,9.74224893 C9.54479297,9.74224893 9.89266992,9.38951073 9.89266992,8.95434335" id="Fill-3" fill="#6B6B6B" mask="url(#mask-2)"></path>
                        </g>
                        <path d="M5.28290039,14.1503176 L4.86761133,14.1503176 C4.43853516,14.1503176 4.09073438,14.5030558 4.09073438,14.9382232 C4.09073438,15.3734678 4.43853516,15.726206 4.86761133,15.726206 L5.28290039,15.726206 C5.71197656,15.726206 6.05977734,15.3734678 6.05977734,14.9382232 C6.05977734,14.5030558 5.71197656,14.1503176 5.28290039,14.1503176" id="Fill-5" fill="#6B6B6B"></path>
                    </g>
                </g>
            </g>
        </g>
    </g>
</svg>