<?xml version="1.0" encoding="UTF-8"?>
<svg width="35px" height="35px" viewBox="0 0 35 35" version="1.1" xmlns="http://www.w3.org/2000/svg" xmlns:xlink="http://www.w3.org/1999/xlink">
    <!-- Generator: Sketch 47.1 (45422) - http://www.bohemiancoding.com/sketch -->
    <title>smartphone</title>
    <desc>Created with Sketch.</desc>
    <defs>
        <polygon id="path-1" points="0.290208333 34.95625 20.1235417 34.95625 20.1235417 0 0.290208333 0 0.290208333 34.95625"></polygon>
    </defs>
    <g id="Symbols" stroke="none" stroke-width="1" fill="none" fill-rule="evenodd">
        <g id="footer" transform="translate(-137.000000, -222.000000)">
            <g id="Support-infor-colum">
                <g transform="translate(135.000000, 151.000000)">
                    <g id="smartphone" transform="translate(2.000000, 71.000000)">
                        <g id="Group-3" transform="translate(7.291667, 0.000000)">
                            <mask id="mask-2" fill="white">
                                <use xlink:href="#path-1"></use>
                            </mask>
                            <g id="Clip-2"></g>
                            <path d="M17.5539583,0 L2.85979167,0 C1.44375,0 0.290208333,1.15354167 0.290208333,2.56885417 L0.290208333,32.4311458 C0.290208333,33.8464583 1.44375,35 2.85979167,35 L17.5539583,35 C18.9729167,35 20.1235417,33.8464583 20.1235417,32.4311458 L20.1235417,2.56885417 C20.1235417,1.15354167 18.9729167,0 17.5539583,0 Z M1.45833333,26.8340625 L18.9583333,26.8340625 L18.9583333,4.66520833 L1.45833333,4.66520833 L1.45833333,26.8340625 Z M2.85979167,1.168125 L17.5539583,1.168125 C18.3290625,1.168125 18.9583333,1.79739583 18.9583333,2.56885417 L18.9583333,3.50072917 L1.45833333,3.50072917 L1.45833333,2.56885417 C1.45833333,1.79739583 2.08760417,1.168125 2.85979167,1.168125 Z M17.5539583,33.831875 L2.85979167,33.831875 C2.08760417,33.831875 1.45833333,33.2026042 1.45833333,32.4311458 L1.45833333,27.9985417 L18.9583333,27.9985417 L18.9583333,32.4311458 C18.9583333,33.2026042 18.3290625,33.831875 17.5539583,33.831875 Z" id="Fill-1" fill="#6B6B6B" mask="url(#mask-2)"></path>
                        </g>
                        <path d="M17.5,28.5826042 C16.2122917,28.5826042 15.1673958,29.6311458 15.1673958,30.9152083 C15.1673958,32.2029167 16.2122917,33.2514583 17.5,33.2514583 C18.7877083,33.2514583 19.8326042,32.2029167 19.8326042,30.9152083 C19.8326042,29.6311458 18.7877083,28.5826042 17.5,28.5826042 Z M17.5,32.0833333 C16.8561458,32.0833333 16.331875,31.5590625 16.331875,30.9152083 C16.331875,30.275 16.8561458,29.7507292 17.5,29.7507292 C18.1438542,29.7507292 18.6652083,30.275 18.6652083,30.9152083 C18.6652083,31.5590625 18.1438542,32.0833333 17.5,32.0833333 Z" id="Fill-4" fill="#6B6B6B"></path>
                        <path d="M15.1673958,2.91666667 L17.5,2.91666667 C17.8215625,2.91666667 18.0840625,2.65489583 18.0840625,2.33260417 C18.0840625,2.01104167 17.8215625,1.74854167 17.5,1.74854167 L15.1673958,1.74854167 C14.8421875,1.74854167 14.5833333,2.01104167 14.5833333,2.33260417 C14.5833333,2.65489583 14.8421875,2.91666667 15.1673958,2.91666667 Z" id="Fill-5" fill="#6B6B6B"></path>
                        <g id="Group-11" transform="translate(0.000000, 1.458333)" fill="#6B6B6B">
                            <path d="M19.2485417,1.45833333 L19.8326042,1.45833333 C20.1548958,1.45833333 20.4166667,1.1965625 20.4166667,0.874270833 C20.4166667,0.552708333 20.1548958,0.290208333 19.8326042,0.290208333 L19.2485417,0.290208333 C18.9269792,0.290208333 18.6652083,0.552708333 18.6652083,0.874270833 C18.6652083,1.1965625 18.9269792,1.45833333 19.2485417,1.45833333 Z" id="Fill-6"></path>
                            <path d="M33.0232292,1.2075 C32.7957292,0.98 32.4253125,0.98 32.1970833,1.2075 C31.9695833,1.43572917 31.9695833,1.80322917 32.1970833,2.03072917 C34.3765625,4.20947917 34.3765625,7.75614583 32.1970833,9.9378125 C31.9695833,10.1653125 31.9695833,10.5328125 32.1970833,10.7610417 C32.3108333,10.8747917 32.4625,10.9316667 32.6105208,10.9316667 C32.7614583,10.9316667 32.9094792,10.8747917 33.0232292,10.7610417 C35.6577083,8.12875 35.6577083,3.84270833 33.0232292,1.2075 Z" id="Fill-8"></path>
                            <path d="M30.568125,2.5353125 C30.3369792,2.30708333 29.9702083,2.30708333 29.7419792,2.5353125 C29.5144792,2.7628125 29.5144792,3.1303125 29.7419792,3.3578125 C30.4623958,4.081875 30.86125,5.04145833 30.86125,6.06666667 C30.86125,7.0896875 30.4623958,8.04927083 29.7419792,8.7696875 C29.5144792,8.99791667 29.5144792,9.36833333 29.7419792,9.59583333 C29.8557292,9.70958333 30.00375,9.7671875 30.1546875,9.7671875 C30.3034375,9.7671875 30.454375,9.70958333 30.568125,9.59583333 C31.5080208,8.65302083 32.0264583,7.39958333 32.0264583,6.06666667 C32.0264583,4.73083333 31.5080208,3.47520833 30.568125,2.5353125 Z" id="Fill-9"></path>
                            <path d="M2.8,2.03072917 C3.0275,1.80322917 3.0275,1.43572917 2.8,1.2075 C2.57177083,0.98 2.20427083,0.98 1.97677083,1.2075 C-0.657708333,3.84270833 -0.657708333,8.1265625 1.97677083,10.7610417 C2.09052083,10.8747917 2.23854167,10.9316667 2.3865625,10.9316667 C2.5375,10.9316667 2.68625,10.8747917 2.8,10.7610417 C3.0275,10.5328125 3.0275,10.1653125 2.8,9.9378125 C0.62125,7.7590625 0.62125,4.21239583 2.8,2.03072917 Z" id="Fill-10"></path>
                        </g>
                        <path d="M5.25802083,3.83104167 C5.02979167,3.6028125 4.66010417,3.6028125 4.431875,3.83104167 C3.4890625,4.77385417 2.970625,6.02729167 2.970625,7.363125 C2.970625,8.69604167 3.4890625,9.95166667 4.431875,10.8922917 C4.545625,11.0060417 4.694375,11.0629167 4.8453125,11.0629167 C4.99333333,11.0629167 5.14427083,11.0060417 5.25802083,10.8922917 C5.48552083,10.6640625 5.48552083,10.2965625 5.25802083,10.0690625 C4.5346875,9.34791667 4.13875,8.38541667 4.13875,7.363125 C4.13875,6.34010417 4.5346875,5.37760417 5.25802083,4.6571875 C5.48552083,4.42895833 5.48552083,4.05854167 5.25802083,3.83104167 Z" id="Fill-12" fill="#6B6B6B"></path>
                    </g>
                </g>
            </g>
        </g>
    </g>
</svg>