<?xml version="1.0" encoding="UTF-8"?>
<svg width="40px" height="32px" viewBox="0 0 20 16" version="1.1" xmlns="http://www.w3.org/2000/svg" xmlns:xlink="http://www.w3.org/1999/xlink">
    <!-- Generator: Sketch 47.1 (45422) - http://www.bohemiancoding.com/sketch -->
    <title>homebuyer</title>
    <desc>Created with Sketch.</desc>
    <defs>
        <polygon id="path-1" points="9.5785183 0.0683254656 0.0109320745 0.0683254656 0.0109320745 15.3049043 19.1461045 15.3049043 19.1461045 0.0683254656"></polygon>
    </defs>
    <g id="Symbols" stroke="none" stroke-width="1" fill="none" fill-rule="evenodd">
        <g id="trans-1" transform="translate(-8.000000, -24.000000)">
            <g id="homebuyer">
                <g transform="translate(8.000000, 24.000000)">
                    <mask id="mask-2" fill="white">
                        <use xlink:href="#path-1"></use>
                    </mask>
                    <g id="Clip-2"></g>
                    <path d="M9.57267103,3.14370022 L2.7443151,8.77353638 C2.7443151,8.78137104 2.74303969,8.79339632 2.73866686,8.80906563 C2.73520504,8.82473493 2.73301862,8.83603141 2.73301862,8.84459487 L2.73301862,14.5447607 C2.73301862,14.7504659 2.80772113,14.9284765 2.95858376,15.0786103 C3.10871758,15.229473 3.2867282,15.3049043 3.4924334,15.3049043 L8.05311268,15.3049043 L8.05311268,10.744225 L11.093687,10.744225 L11.093687,15.3049043 L15.6536375,15.3049043 C15.8593427,15.3049043 16.0373533,15.229473 16.1874871,15.0793392 C16.3383497,14.9292053 16.413781,14.7504659 16.413781,14.5447607 L16.413781,8.84459487 C16.413781,8.81252745 16.4094082,8.78902349 16.4017558,8.77353638 L9.57267103,3.14370022 Z" id="Fill-1" fill="#F57F1D" mask="url(#mask-2)"></path>
                    <path d="M19.0136106,7.49083964 L16.4130522,5.32938632 L16.4130522,0.483926498 C16.4130522,0.372965941 16.377523,0.281865321 16.3062823,0.210624635 C16.2350416,0.139566151 16.143941,0.104036909 16.0329805,0.104036909 L13.7532785,0.104036909 C13.642318,0.104036909 13.5512173,0.139566151 13.4799767,0.210624635 C13.4089182,0.281865321 13.3732067,0.372965941 13.3732067,0.483926498 L13.3732067,2.79988648 L10.4758426,0.377338771 C10.2224007,0.17163357 9.92140421,0.0683254656 9.57339983,0.0683254656 C9.22466666,0.0683254656 8.92421681,0.17163357 8.67095709,0.377338771 L0.131731498,7.49083964 C0.0526561588,7.55424568 0.00929226332,7.63896925 0.00145760993,7.74573918 C-0.00637704345,7.85250911 0.0213175453,7.94579614 0.0847235773,8.02541809 L0.820634392,8.90362807 C0.884040424,8.97486876 0.967306391,9.01896146 1.06970349,9.03463076 C1.16517694,9.04246542 1.26046819,9.01477083 1.35521283,8.9513648 L9.57267103,2.0989583 L17.7910402,8.9513648 C17.8542641,9.00693617 17.93753,9.03463076 18.0401093,9.03463076 L18.0763674,9.03463076 C18.1787645,9.01896146 18.2614838,8.97486876 18.3254365,8.90362807 L19.0620761,8.02468928 C19.1247533,7.94579614 19.1531767,7.85250911 19.1446133,7.74573918 C19.1367786,7.63896925 19.0926859,7.55424568 19.0136106,7.49083964 Z" id="Fill-3" fill="#F57F1D" mask="url(#mask-2)"></path>
                </g>
            </g>
        </g>
    </g>
</svg>
