<?xml version="1.0" encoding="UTF-8"?>
<svg width="32px" height="35px" viewBox="0 0 35 38" version="1.1" xmlns="http://www.w3.org/2000/svg" xmlns:xlink="http://www.w3.org/1999/xlink">
    <!-- Generator: Sketch 47.1 (45422) - http://www.bohemiancoding.com/sketch -->
    <title>drawing-house-plan</title>
    <desc>Created with Sketch.</desc>
    <defs>
        <polygon id="path-1" points="0.0466666667 0.12886166 0.0466666667 37.058035 34.6048889 37.058035 34.6048889 0.12886166 0.0466666667 0.12886166"></polygon>
    </defs>
    <g id="Listing-site" stroke="none" stroke-width="1" fill="none" fill-rule="evenodd">
        <g id="property-listing" transform="translate(-588.000000, -1510.000000)">
            <g id="section-3" transform="translate(44.000000, 1441.000000)">
                <g id="drawing-house-plan" transform="translate(544.000000, 69.000000)">
                    <g id="Group-3">
                        <mask id="mask-2" fill="white">
                            <use xlink:href="#path-1"></use>
                        </mask>
                        <g id="Clip-2"></g>
                        <path d="M0.14,4.09854819 L0.14,4.10170213 C0.161,4.14743429 0.182,4.16951189 0.182,4.16951189 L0.194444444,4.15374218 L9.52155556,13.1968836 L9.52155556,37.058035 L34.6048889,37.058035 L34.6048889,1.57618273 L9.52155556,1.57618273 L9.52155556,5.72125156 L3.822,0.196332916 L3.79477778,0.223929912 C3.60655556,0.15612015 2.54022222,-0.244430538 1.05388889,1.32938673 C-0.428555556,2.90005006 0.0606666667,3.91010013 0.14,4.09854819 Z M26.1348889,33.9040926 L31.4937778,33.9040926 L31.4937778,26.2557822 L26.1348889,26.2557822 L26.1348889,33.9040926 Z M26.1348889,25.6249937 L31.4937778,25.6249937 L31.4937778,11.9061327 L26.1348889,11.9061327 L26.1348889,25.6249937 Z M26.1348889,11.2745557 L26.9912222,11.2745557 L26.9912222,4.73012516 L26.1348889,4.73012516 L26.1348889,11.2745557 Z M29.0087778,11.2745557 L29.8651111,11.2745557 L29.8651111,4.73012516 L29.0087778,4.73012516 L29.0087778,11.2745557 Z M30.485,11.2745557 L31.4937778,11.2745557 L31.4937778,4.73012516 L30.485,4.73012516 L30.485,11.2745557 Z M27.6142222,11.2745557 L28.3857778,11.2745557 L28.3857778,4.73012516 L27.6142222,4.73012516 L27.6142222,11.2745557 Z M24.7372222,11.2745557 L25.515,11.2745557 L25.515,4.73012516 L24.7372222,4.73012516 L24.7372222,11.2745557 Z M23.2571111,11.2745557 L24.1142222,11.2745557 L24.1142222,4.73012516 L23.2571111,4.73012516 L23.2571111,11.2745557 Z M12.6326667,4.73012516 L22.6348889,4.73012516 L22.6348889,11.2745557 L19.3682222,11.2745557 L19.3682222,11.9061327 L25.515,11.9061327 L25.515,33.9040926 L21.392,33.9040926 L21.392,32.4406633 L20.146,32.4406633 L20.146,33.9040926 L12.6326667,33.9040926 L12.6326667,22.1564456 L13.6142222,22.1564456 L13.6142222,20.8940801 L12.6326667,20.8940801 L12.6326667,16.2152065 L13.195,16.7600501 C13.335,16.0614518 13.8358889,15.2020025 14.4682222,14.4687109 C15.2366667,13.5816646 16.121,12.9437797 16.7953333,12.7718899 L12.6326667,8.73720901 L12.6326667,4.73012516 Z" id="Fill-1" fill="#F57F1D" mask="url(#mask-2)"></path>
                    </g>
                    <path d="M14.7381111,14.6532165 C13.86,15.6884981 13.5263333,16.5755444 13.5107778,17.0249812 C13.5045556,17.1606008 13.8086667,17.3332791 13.86,17.3332791 L13.8631111,17.3332791 L14.5771111,17.419224 L15.106,17.4838798 L17.5303333,17.779562 C17.5303333,17.776408 17.5272222,17.776408 17.5272222,17.7732541 C17.5155556,17.5919024 17.5972222,17.3766458 17.7551111,17.1881977 C17.8344444,17.0959449 18.0351111,16.8925156 18.2871111,16.8743805 L17.5972222,14.4844806 L17.4455556,13.9664456 L17.2596667,13.3230413 C17.2721111,13.1811139 17.1111111,12.9997622 17.0652222,12.9997622 C16.6187778,12.9997622 15.6496667,13.5785106 14.7381111,14.6532165 Z M16.7377778,13.7574969 L16.8497778,14.1454318 L16.9983333,14.6626783 L17.5396667,16.5321777 C17.4206667,16.6244305 17.3327778,16.7206258 17.2814444,16.7789737 C17.199,16.8775344 17.129,16.982403 17.0745556,17.0864831 L15.1822222,16.8586108 L14.6502222,16.7939549 L14.1975556,16.738761 C14.322,16.350826 14.6315556,15.7468461 15.2094444,15.066383 C15.8231111,14.3457071 16.3877778,13.9420025 16.7377778,13.7574969 Z" id="Fill-4" fill="#F57F1D"></path>
                    <path d="M17.9347778,17.7890238 C17.9371111,17.7921777 17.9371111,17.8016395 17.9433333,17.8047935 L18.5025556,18.2786733 C18.5391111,18.3094243 18.6728889,18.352791 18.7973333,18.352791 C18.8821111,18.352791 18.9645556,18.3338673 19.0127778,18.2786733 C19.1317778,18.1398999 18.9917778,17.8292365 18.9311111,17.779562 L18.3718889,17.3025282 C18.3571111,17.2899124 18.3415556,17.2867584 18.3205556,17.2867584 C18.3174444,17.2867584 18.3112222,17.2867584 18.3081111,17.2899124 C18.235,17.2962203 18.1346667,17.3577222 18.0467778,17.4594368 C17.9371111,17.5887484 17.892,17.7275219 17.9347778,17.7890238 Z" id="Fill-5" fill="#F57F1D"></path>
                    <polygon id="Fill-6" fill="#F57F1D" points="20.146 22.9110263 21.392 22.9110263 21.392 20.8940801 19.2834444 20.8940801 19.2834444 22.1564456 20.146 22.1564456"></polygon>
                    <polygon id="Fill-7" fill="#F57F1D" points="15.5493333 22.157234 17.3475556 22.157234 17.3475556 20.8940801 15.5493333 20.8940801"></polygon>
                    <polygon id="Fill-8" fill="#F57F1D" points="20.146 26.6933917 21.392 26.6933917 21.392 24.8727785 20.146 24.8727785"></polygon>
                    <polygon id="Fill-9" fill="#F57F1D" points="20.146 30.4789111 21.392 30.4789111 21.392 28.6582979 20.146 28.6582979"></polygon>
                </g>
            </g>
        </g>
    </g>
</svg>
