<?xml version="1.0" encoding="iso-8859-1"?>
<!-- Generator: Adobe Illustrator 18.1.1, SVG Export Plug-In . SVG Version: 6.00 Build 0)  -->
<svg xmlns="http://www.w3.org/2000/svg" xmlns:xlink="http://www.w3.org/1999/xlink" version="1.1" id="Capa_1" x="0px" y="0px" viewBox="0 0 478.165 478.165" style="enable-background:new 0 0 478.165 478.165;" xml:space="preserve" width="512px" height="512px">
<g>
	<path id="LinkedIn__x28_alt_x29__3_" d="M442.78,0H35.424C15.859,0,0,15.401,0,34.288v409.688   c0,18.828,15.859,34.189,35.424,34.189h407.337c19.585,0,35.404-15.361,35.404-34.189V34.288C478.165,15.401,462.345,0,442.78,0z    M145.003,400.244H72.781V184.412h72.223V400.244z M108.842,154.965h-0.478c-24.247,0-39.927-16.696-39.927-37.337   c0-21.219,16.158-37.337,40.863-37.337c24.725,0,39.927,16.118,40.385,37.337C149.705,138.269,134.045,154.965,108.842,154.965z    M405.384,400.244h-72.083V284.807c0-29.009-10.599-48.952-36.739-48.952c-20.063,0-31.798,13.428-36.958,26.458   c-1.893,4.423-2.391,10.898-2.391,17.393v120.537H184.95c0,0,0.916-195.629,0-215.832h72.263v30.603   c9.484-14.684,26.658-35.703,65.01-35.703c47.577,0,83.161,30.862,83.161,97.167V400.244z M256.774,215.712   c0.06-0.219,0.159-0.438,0.418-0.677v0.677H256.774L256.774,215.712z" fill="#6777aa"/>
</g>
<g>
</g>
<g>
</g>
<g>
</g>
<g>
</g>
<g>
</g>
<g>
</g>
<g>
</g>
<g>
</g>
<g>
</g>
<g>
</g>
<g>
</g>
<g>
</g>
<g>
</g>
<g>
</g>
<g>
</g>
</svg>
